# Blender v2.82 (sub 7) OBJ File: 'shadow_peg.blend'
# www.blender.org
mtllib Four_shadow.mtl
o /ambf/icl/Four_shadow_PuzzleRed4
v 0.049521 0.002305 -0.000000
v 0.049521 0.002305 0.097045
v -0.022765 0.044039 0.097045
v -0.022765 0.044039 -0.000000
v -0.033128 -0.069844 0.000000
v 0.077051 -0.006232 0.000000
v 0.077051 -0.006232 0.097045
v -0.033128 -0.069844 0.097045
v -0.026757 0.041734 -0.000000
v -0.026757 0.041734 0.097045
v -0.026757 -0.041734 0.097045
v -0.026757 -0.041734 -0.000000
v 0.077051 0.006232 0.000000
v -0.033128 0.069844 0.000000
v -0.033128 0.069844 0.097045
v 0.077051 0.006232 0.097045
v 0.075381 0.000000 0.097045
v 0.058123 0.000000 0.097045
v 0.049521 -0.002305 0.097045
v -0.022765 -0.044039 0.097045
v -0.040761 -0.070600 0.097045
v -0.037259 -0.071280 0.097045
v -0.043923 -0.063612 0.097045
v -0.043101 -0.067908 0.097045
v -0.037691 0.065282 0.097045
v -0.043923 0.063612 0.097045
v -0.029062 0.050336 0.097045
v -0.026453 -0.043323 0.097045
v -0.024292 -0.044570 0.097045
v -0.025587 -0.044319 0.097045
v -0.043923 -0.063612 0.000000
v -0.043923 0.063612 0.000000
v -0.037691 0.065282 -0.000000
v -0.029062 0.050336 -0.000000
v -0.043101 -0.067908 0.000000
v -0.037259 -0.071280 0.000000
v -0.040761 -0.070600 0.000000
v 0.058123 0.000000 -0.000000
v 0.075381 0.000000 -0.000000
v -0.022765 -0.044039 -0.000000
v 0.049521 -0.002305 -0.000000
v -0.026453 -0.043323 -0.000000
v -0.024292 -0.044570 -0.000000
v -0.025587 -0.044319 -0.000000
v 0.080360 0.003373 0.000000
v 0.081522 0.000000 0.000000
v 0.080360 -0.003373 0.000000
v -0.043101 0.067907 0.000000
v -0.040761 0.070600 0.000000
v -0.037259 0.071280 0.000000
v 0.080360 -0.003373 0.097045
v 0.081522 0.000000 0.097045
v 0.080360 0.003373 0.097045
v -0.037259 0.071280 0.097045
v -0.040761 0.070600 0.097045
v -0.043101 0.067907 0.097045
v 0.050745 0.001247 0.097045
v 0.051175 0.000000 0.097045
v 0.050745 -0.001247 0.097045
v 0.050745 -0.001247 -0.000000
v 0.051175 0.000000 -0.000000
v 0.050745 0.001247 -0.000000
v -0.026453 0.043323 0.097045
v -0.025588 0.044319 0.097045
v -0.024292 0.044570 0.097045
v -0.024292 0.044570 -0.000000
v -0.025588 0.044319 -0.000000
v -0.026453 0.043323 -0.000000
v 0.001420 -0.056068 0.040126
v 0.033931 -0.037298 0.081093
v 0.030401 -0.039336 0.081092
v 0.025533 -0.042147 0.063136
v 0.025701 -0.042050 0.063136
v 0.033943 -0.037291 0.044313
v 0.012428 -0.049713 0.044304
v 0.025707 -0.042046 0.044310
v 0.040079 -0.033749 0.044316
v 0.040081 -0.033747 0.035776
v 0.001422 -0.056068 0.035759
v 0.025710 -0.042044 0.035770
v 0.025717 -0.042040 0.014032
v 0.033946 -0.037289 0.035773
v 0.033954 -0.037285 0.014035
v 0.031505 -0.033096 0.081093
v -0.001006 -0.051866 0.040126
v 0.027975 -0.035134 0.081092
v 0.023107 -0.037945 0.063136
v 0.023275 -0.037848 0.063136
v 0.031517 -0.033089 0.044313
v 0.010002 -0.045511 0.044304
v 0.023281 -0.037844 0.044310
v 0.037652 -0.029546 0.044316
v 0.037655 -0.029545 0.035776
v -0.001005 -0.051865 0.035759
v 0.023284 -0.037842 0.035770
v 0.031520 -0.033087 0.035773
v 0.023291 -0.037838 0.014032
v 0.031527 -0.033083 0.014035
v 0.048151 0.029152 0.040130
v 0.015627 0.047930 0.081083
v 0.019157 0.045892 0.081083
v 0.024031 0.043078 0.063130
v 0.023863 0.043175 0.063130
v 0.015627 0.047931 0.044303
v 0.037142 0.035509 0.044303
v 0.023863 0.043175 0.044303
v 0.009492 0.051473 0.044303
v 0.009491 0.051473 0.035764
v 0.048151 0.029152 0.035763
v 0.023863 0.043175 0.035763
v 0.023862 0.043176 0.014025
v 0.015627 0.047931 0.035763
v 0.015626 0.047931 0.014025
v 0.013201 0.043728 0.081083
v 0.045725 0.024950 0.040130
v 0.016731 0.041690 0.081083
v 0.021605 0.038876 0.063130
v 0.021437 0.038973 0.063130
v 0.013200 0.043729 0.044303
v 0.034715 0.031307 0.044303
v 0.021437 0.038973 0.044303
v 0.007065 0.047271 0.044303
v 0.007065 0.047271 0.035764
v 0.045725 0.024950 0.035763
v 0.021437 0.038973 0.035763
v 0.013200 0.043729 0.035763
v 0.021436 0.038974 0.014025
v 0.013200 0.043729 0.014025
vn -0.5000 -0.8660 -0.0000
vn 0.5000 -0.8660 0.0000
vn 1.0000 0.0000 0.0000
vn 0.5000 0.8660 0.0000
vn -0.0000 0.0000 1.0000
vn -0.0000 -0.0000 -1.0000
vn -1.0000 -0.0000 0.0000
vn 0.3284 -0.9445 0.0000
vn -0.1906 -0.9817 0.0000
vn -0.7548 -0.6559 0.0000
vn -0.9822 -0.1879 0.0000
vn 0.3284 0.9445 0.0000
vn -0.1906 0.9817 0.0000
vn -0.7548 0.6559 0.0000
vn -0.9822 0.1879 0.0000
vn 0.6538 -0.7567 0.0000
vn 0.9455 -0.3257 0.0000
vn 0.9455 0.3257 0.0000
vn 0.6538 0.7567 0.0000
vn 0.9822 -0.1879 0.0000
vn 0.7548 -0.6559 -0.0000
vn 0.1906 -0.9817 -0.0000
vn -0.3284 -0.9445 -0.0000
vn -0.6538 -0.7567 -0.0000
vn -0.9455 -0.3257 -0.0000
vn -0.9455 0.3257 -0.0000
vn -0.6538 0.7567 -0.0000
vn 0.9822 0.1879 0.0000
vn 0.7548 0.6559 0.0000
vn 0.1906 0.9817 0.0000
vn -0.3284 0.9445 0.0000
vn -0.5000 0.8660 0.0000
vn 0.4240 -0.3182 0.8479
vn -0.9002 0.4356 0.0000
vn -0.2386 0.1791 -0.9545
vn 0.6690 -0.3239 0.6690
vn 0.8660 0.5000 0.0004
vn 0.0003 0.0002 -1.0000
vn -0.8660 -0.5000 -0.0004
vn -0.6707 -0.3872 0.6326
vn -0.0003 -0.0002 1.0000
vn 0.0004 0.0002 -1.0000
vn 0.6751 0.3898 -0.6263
vn 0.0000 1.0000 0.0000
vn -0.9904 -0.1385 0.0000
vn 0.6985 0.1559 -0.6985
vn 0.0000 0.5549 -0.8319
vn -0.8660 0.5000 0.0000
vn 0.8660 -0.5000 -0.0000
vn 0.6705 -0.3871 0.6329
vn 0.0001 0.0000 -1.0000
vn -0.0001 0.0000 -1.0000
vn -0.6749 0.3897 -0.6266
usemtl PuzzleRed4mat.002
s off
f 1//1 2//1 3//1
f 3//1 4//1 1//1
f 5//2 6//2 7//2
f 7//2 8//2 5//2
f 9//3 10//3 11//3
f 11//3 12//3 9//3
f 13//4 14//4 15//4
f 15//4 16//4 13//4
f 17//5 18//5 19//5
f 17//5 19//5 20//5
f 8//5 7//5 17//5
f 21//5 22//5 8//5
f 23//5 24//5 21//5
f 25//5 26//5 23//5
f 10//5 27//5 25//5
f 11//5 10//5 25//5
f 25//5 23//5 21//5
f 21//5 8//5 17//5
f 21//5 17//5 20//5
f 11//5 25//5 21//5
f 28//5 11//5 21//5
f 21//5 20//5 29//5
f 30//5 28//5 21//5
f 29//5 30//5 21//5
f 18//5 17//5 16//5
f 16//5 15//5 25//5
f 25//5 27//5 3//5
f 3//5 2//5 18//5
f 18//5 16//5 25//5
f 25//5 3//5 18//5
f 31//6 32//6 33//6
f 33//6 34//6 9//6
f 33//6 9//6 12//6
f 35//6 31//6 33//6
f 36//6 37//6 35//6
f 6//6 5//6 36//6
f 38//6 39//6 6//6
f 40//6 41//6 38//6
f 40//6 38//6 6//6
f 6//6 36//6 35//6
f 35//6 33//6 12//6
f 35//6 12//6 42//6
f 40//6 6//6 35//6
f 43//6 40//6 35//6
f 35//6 42//6 44//6
f 44//6 43//6 35//6
f 32//7 31//7 23//7
f 23//7 26//7 32//7
f 13//6 45//6 39//6
f 45//6 46//6 39//6
f 46//6 47//6 39//6
f 47//6 6//6 39//6
f 32//6 48//6 33//6
f 48//6 49//6 33//6
f 49//6 50//6 33//6
f 50//6 14//6 33//6
f 7//5 51//5 17//5
f 51//5 52//5 17//5
f 52//5 53//5 17//5
f 53//5 16//5 17//5
f 15//5 54//5 25//5
f 54//5 55//5 25//5
f 55//5 56//5 25//5
f 56//5 26//5 25//5
f 5//8 8//8 22//8
f 22//8 36//8 5//8
f 36//9 22//9 21//9
f 21//9 37//9 36//9
f 37//10 21//10 24//10
f 24//10 35//10 37//10
f 35//11 24//11 23//11
f 23//11 31//11 35//11
f 15//12 14//12 50//12
f 50//12 54//12 15//12
f 54//13 50//13 49//13
f 49//13 55//13 54//13
f 55//14 49//14 48//14
f 48//14 56//14 55//14
f 56//15 48//15 32//15
f 32//15 26//15 56//15
f 7//16 6//16 47//16
f 47//16 51//16 7//16
f 51//17 47//17 46//17
f 46//17 52//17 51//17
f 52//18 46//18 45//18
f 45//18 53//18 52//18
f 53//19 45//19 13//19
f 13//19 16//19 53//19
f 14//6 13//6 39//6
f 39//6 38//6 1//6
f 1//6 4//6 34//6
f 34//6 33//6 14//6
f 14//6 39//6 1//6
f 1//6 34//6 14//6
f 2//5 57//5 18//5
f 57//5 58//5 18//5
f 58//5 59//5 18//5
f 59//5 19//5 18//5
f 41//6 60//6 38//6
f 60//6 61//6 38//6
f 61//6 62//6 38//6
f 62//6 1//6 38//6
f 10//5 63//5 27//5
f 63//5 64//5 27//5
f 64//5 65//5 27//5
f 65//5 3//5 27//5
f 4//6 66//6 34//6
f 66//6 67//6 34//6
f 67//6 68//6 34//6
f 68//6 9//6 34//6
f 10//20 9//20 68//20
f 68//20 63//20 10//20
f 63//21 68//21 67//21
f 67//21 64//21 63//21
f 64//22 67//22 66//22
f 66//22 65//22 64//22
f 65//23 66//23 4//23
f 4//23 3//23 65//23
f 2//24 1//24 62//24
f 62//24 57//24 2//24
f 57//25 62//25 61//25
f 61//25 58//25 57//25
f 58//26 61//26 60//26
f 60//26 59//26 58//26
f 59//27 60//27 41//27
f 41//27 19//27 59//27
f 12//28 11//28 28//28
f 28//28 42//28 12//28
f 42//29 28//29 30//29
f 30//29 44//29 42//29
f 44//30 30//30 29//30
f 29//30 43//30 44//30
f 43//31 29//31 20//31
f 20//31 40//31 43//31
f 40//32 20//32 19//32
f 19//32 41//32 40//32
usemtl Four2mat.002
f 69//2 70//2 71//2
f 69//2 72//2 70//2
f 72//2 73//2 70//2
f 73//2 74//2 70//2
f 69//2 75//2 72//2
f 76//2 74//2 73//2
f 69//2 76//2 75//2
f 69//2 74//2 76//2
f 69//2 77//2 74//2
f 69//2 78//2 77//2
f 79//2 78//2 69//2
f 80//33 78//33 79//33
f 81//2 82//2 80//2
f 82//34 78//34 80//34
f 81//2 83//2 82//2
f 84//32 85//32 86//32
f 87//32 85//32 84//32
f 88//32 87//32 84//32
f 89//32 88//32 84//32
f 90//32 85//32 87//32
f 89//32 91//32 88//32
f 91//32 85//32 90//32
f 89//32 85//32 91//32
f 92//32 85//32 89//32
f 93//32 85//32 92//32
f 93//32 94//32 85//32
f 93//35 95//35 94//35
f 96//32 97//32 95//32
f 93//36 96//36 95//36
f 98//32 97//32 96//32
f 77//37 78//37 93//37
f 93//37 92//37 77//37
f 78//38 82//38 96//38
f 96//38 93//38 78//38
f 82//37 83//37 98//37
f 98//37 96//37 82//37
f 83//38 81//38 97//38
f 97//38 98//38 83//38
f 81//39 80//39 95//39
f 95//39 97//39 81//39
f 80//38 79//38 94//38
f 94//38 95//38 80//38
f 79//39 69//39 85//39
f 85//39 94//39 79//39
f 69//40 71//40 86//40
f 86//40 85//40 69//40
f 71//41 70//41 84//41
f 84//41 86//41 71//41
f 70//37 74//37 89//37
f 89//37 84//37 70//37
f 74//41 77//41 92//41
f 92//41 89//41 74//41
f 76//39 73//39 88//39
f 88//39 91//39 76//39
f 73//42 72//42 87//42
f 87//42 88//42 73//42
f 72//43 75//43 90//43
f 90//43 87//43 72//43
f 75//41 76//41 91//41
f 91//41 90//41 75//41
usemtl Four3mat.002
f 99//4 100//4 101//4
f 99//4 102//4 100//4
f 102//4 103//4 100//4
f 103//4 104//4 100//4
f 99//4 105//4 102//4
f 106//4 104//4 103//4
f 99//4 106//4 105//4
f 99//4 104//4 106//4
f 99//4 107//4 104//4
f 99//4 108//4 107//4
f 109//4 108//4 99//4
f 110//44 108//44 109//44
f 111//4 112//4 110//4
f 112//45 108//45 110//45
f 111//4 113//4 112//4
f 114//1 115//1 116//1
f 117//1 115//1 114//1
f 118//1 117//1 114//1
f 119//1 118//1 114//1
f 120//1 115//1 117//1
f 119//1 121//1 118//1
f 121//1 115//1 120//1
f 119//1 115//1 121//1
f 122//1 115//1 119//1
f 123//1 115//1 122//1
f 123//1 124//1 115//1
f 123//46 125//46 124//46
f 126//1 127//1 125//1
f 123//47 126//47 125//47
f 128//1 127//1 126//1
f 107//48 108//48 123//48
f 123//48 122//48 107//48
f 108//6 112//6 126//6
f 126//6 123//6 108//6
f 112//48 113//48 128//48
f 128//48 126//48 112//48
f 113//6 111//6 127//6
f 127//6 128//6 113//6
f 111//49 110//49 125//49
f 125//49 127//49 111//49
f 110//6 109//6 124//6
f 124//6 125//6 110//6
f 109//49 99//49 115//49
f 115//49 124//49 109//49
f 99//50 101//50 116//50
f 116//50 115//50 99//50
f 101//5 100//5 114//5
f 114//5 116//5 101//5
f 100//48 104//48 119//48
f 119//48 114//48 100//48
f 104//5 107//5 122//5
f 122//5 119//5 104//5
f 106//49 103//49 118//49
f 118//49 121//49 106//49
f 103//51 102//51 117//51
f 117//52 118//52 103//52
f 102//53 105//53 120//53
f 120//53 117//53 102//53
f 105//5 106//5 121//5
f 121//5 120//5 105//5
