# Blender v2.82 (sub 7) OBJ File: 'shadow_peg.blend'
# www.blender.org
mtllib One_shadow.mtl
o /ambf/icl/One_shadow_PuzzleRed1
v 0.049521 0.002305 -0.000000
v 0.049521 0.002305 0.097045
v -0.022765 0.044039 0.097045
v -0.022765 0.044039 -0.000000
v -0.033128 -0.069844 0.000000
v 0.077051 -0.006232 0.000000
v 0.077051 -0.006232 0.097045
v -0.033128 -0.069844 0.097045
v -0.026757 0.041734 -0.000000
v -0.026757 0.041734 0.097045
v -0.026757 -0.041734 0.097045
v -0.026757 -0.041734 -0.000000
v 0.077051 0.006232 0.000000
v -0.033128 0.069844 0.000000
v -0.033128 0.069844 0.097045
v 0.077051 0.006232 0.097045
v 0.075381 0.000000 0.097045
v 0.058123 0.000000 0.097045
v 0.049521 -0.002305 0.097045
v -0.022765 -0.044039 0.097045
v -0.040761 -0.070600 0.097045
v -0.037259 -0.071280 0.097045
v -0.043923 -0.063612 0.097045
v -0.043101 -0.067908 0.097045
v -0.037691 0.065282 0.097045
v -0.043923 0.063612 0.097045
v -0.029062 0.050336 0.097045
v -0.026453 -0.043323 0.097045
v -0.024292 -0.044570 0.097045
v -0.025587 -0.044319 0.097045
v -0.043923 -0.063612 0.000000
v -0.043923 0.063612 0.000000
v -0.037691 0.065282 -0.000000
v -0.029062 0.050336 -0.000000
v -0.043101 -0.067908 0.000000
v -0.037259 -0.071280 0.000000
v -0.040761 -0.070600 0.000000
v 0.058123 0.000000 -0.000000
v 0.075381 0.000000 -0.000000
v -0.022765 -0.044039 -0.000000
v 0.049521 -0.002305 -0.000000
v -0.026453 -0.043323 -0.000000
v -0.024292 -0.044570 -0.000000
v -0.025587 -0.044319 -0.000000
v 0.080360 0.003373 0.000000
v 0.081522 0.000000 0.000000
v 0.080360 -0.003373 0.000000
v -0.043101 0.067907 0.000000
v -0.040761 0.070600 0.000000
v -0.037259 0.071280 0.000000
v 0.080360 -0.003373 0.097045
v 0.081522 0.000000 0.097045
v 0.080360 0.003373 0.097045
v -0.037259 0.071280 0.097045
v -0.040761 0.070600 0.097045
v -0.043101 0.067907 0.097045
v 0.050745 0.001247 0.097045
v 0.051175 0.000000 0.097045
v 0.050745 -0.001247 0.097045
v 0.050745 -0.001247 -0.000000
v 0.051175 0.000000 -0.000000
v 0.050745 0.001247 -0.000000
v -0.026453 0.043323 0.097045
v -0.025588 0.044319 0.097045
v -0.024292 0.044570 0.097045
v -0.024292 0.044570 -0.000000
v -0.025588 0.044319 -0.000000
v -0.026453 0.043323 -0.000000
v 0.020396 -0.045232 0.018336
v 0.028610 -0.040490 0.084524
v 0.020374 -0.045245 0.084520
v 0.028632 -0.040477 0.018339
v 0.026184 -0.036288 0.084524
v 0.017970 -0.041030 0.018336
v 0.017948 -0.041043 0.084520
v 0.026206 -0.036275 0.018339
v -0.049006 0.005242 0.018338
v -0.049006 -0.004282 0.084521
v -0.049006 0.005228 0.084523
v -0.049006 -0.004269 0.018337
v -0.044154 -0.004282 0.084521
v -0.044154 0.005242 0.018338
v -0.044154 0.005228 0.084523
v -0.044154 -0.004269 0.018337
v 0.029101 0.040004 0.018337
v 0.020866 0.044758 0.084522
v 0.029102 0.040003 0.084522
v 0.020864 0.044759 0.018338
v 0.018439 0.040556 0.084522
v 0.026675 0.035802 0.018337
v 0.026676 0.035801 0.084522
v 0.018438 0.040557 0.018338
vn -0.5000 -0.8660 -0.0000
vn 0.5000 -0.8660 0.0000
vn 1.0000 0.0000 0.0000
vn 0.5000 0.8660 0.0000
vn -0.0000 0.0000 1.0000
vn -0.0000 -0.0000 -1.0000
vn -1.0000 -0.0000 0.0000
vn 0.3284 -0.9445 0.0000
vn -0.1906 -0.9817 0.0000
vn -0.7548 -0.6559 0.0000
vn -0.9822 -0.1879 0.0000
vn 0.3284 0.9445 0.0000
vn -0.1906 0.9817 0.0000
vn -0.7548 0.6559 0.0000
vn -0.9822 0.1879 0.0000
vn 0.6538 -0.7567 0.0000
vn 0.9455 -0.3257 0.0000
vn 0.9455 0.3257 0.0000
vn 0.6538 0.7567 0.0000
vn 0.9822 -0.1879 0.0000
vn 0.7548 -0.6559 -0.0000
vn 0.1906 -0.9817 -0.0000
vn -0.3284 -0.9445 -0.0000
vn -0.6538 -0.7567 -0.0000
vn -0.9455 -0.3257 -0.0000
vn -0.9455 0.3257 -0.0000
vn -0.6538 0.7567 -0.0000
vn 0.9822 0.1879 0.0000
vn 0.7548 0.6559 0.0000
vn 0.1906 0.9817 0.0000
vn -0.3284 0.9445 0.0000
vn -0.5000 0.8660 0.0000
vn -0.8660 -0.5000 -0.0004
vn -0.0003 -0.0002 1.0000
vn 0.8660 0.5000 0.0004
vn 0.0003 0.0002 -1.0000
vn 0.0000 1.0000 0.0002
vn 0.0000 -0.0002 1.0000
vn 0.0000 -1.0000 -0.0002
vn 0.0000 0.0002 -1.0000
vn 0.8660 -0.5000 -0.0000
vn -0.8660 0.5000 0.0000
usemtl PuzzleRed1mat
s off
f 1//1 2//1 3//1
f 3//1 4//1 1//1
f 5//2 6//2 7//2
f 7//2 8//2 5//2
f 9//3 10//3 11//3
f 11//3 12//3 9//3
f 13//4 14//4 15//4
f 15//4 16//4 13//4
f 17//5 18//5 19//5
f 17//5 19//5 20//5
f 8//5 7//5 17//5
f 21//5 22//5 8//5
f 23//5 24//5 21//5
f 25//5 26//5 23//5
f 10//5 27//5 25//5
f 11//5 10//5 25//5
f 25//5 23//5 21//5
f 21//5 8//5 17//5
f 21//5 17//5 20//5
f 11//5 25//5 21//5
f 28//5 11//5 21//5
f 21//5 20//5 29//5
f 30//5 28//5 21//5
f 29//5 30//5 21//5
f 18//5 17//5 16//5
f 16//5 15//5 25//5
f 25//5 27//5 3//5
f 3//5 2//5 18//5
f 18//5 16//5 25//5
f 25//5 3//5 18//5
f 31//6 32//6 33//6
f 33//6 34//6 9//6
f 33//6 9//6 12//6
f 35//6 31//6 33//6
f 36//6 37//6 35//6
f 6//6 5//6 36//6
f 38//6 39//6 6//6
f 40//6 41//6 38//6
f 40//6 38//6 6//6
f 6//6 36//6 35//6
f 35//6 33//6 12//6
f 35//6 12//6 42//6
f 40//6 6//6 35//6
f 43//6 40//6 35//6
f 35//6 42//6 44//6
f 44//6 43//6 35//6
f 32//7 31//7 23//7
f 23//7 26//7 32//7
f 13//6 45//6 39//6
f 45//6 46//6 39//6
f 46//6 47//6 39//6
f 47//6 6//6 39//6
f 32//6 48//6 33//6
f 48//6 49//6 33//6
f 49//6 50//6 33//6
f 50//6 14//6 33//6
f 7//5 51//5 17//5
f 51//5 52//5 17//5
f 52//5 53//5 17//5
f 53//5 16//5 17//5
f 15//5 54//5 25//5
f 54//5 55//5 25//5
f 55//5 56//5 25//5
f 56//5 26//5 25//5
f 5//8 8//8 22//8
f 22//8 36//8 5//8
f 36//9 22//9 21//9
f 21//9 37//9 36//9
f 37//10 21//10 24//10
f 24//10 35//10 37//10
f 35//11 24//11 23//11
f 23//11 31//11 35//11
f 15//12 14//12 50//12
f 50//12 54//12 15//12
f 54//13 50//13 49//13
f 49//13 55//13 54//13
f 55//14 49//14 48//14
f 48//14 56//14 55//14
f 56//15 48//15 32//15
f 32//15 26//15 56//15
f 7//16 6//16 47//16
f 47//16 51//16 7//16
f 51//17 47//17 46//17
f 46//17 52//17 51//17
f 52//18 46//18 45//18
f 45//18 53//18 52//18
f 53//19 45//19 13//19
f 13//19 16//19 53//19
f 14//6 13//6 39//6
f 39//6 38//6 1//6
f 1//6 4//6 34//6
f 34//6 33//6 14//6
f 14//6 39//6 1//6
f 1//6 34//6 14//6
f 2//5 57//5 18//5
f 57//5 58//5 18//5
f 58//5 59//5 18//5
f 59//5 19//5 18//5
f 41//6 60//6 38//6
f 60//6 61//6 38//6
f 61//6 62//6 38//6
f 62//6 1//6 38//6
f 10//5 63//5 27//5
f 63//5 64//5 27//5
f 64//5 65//5 27//5
f 65//5 3//5 27//5
f 4//6 66//6 34//6
f 66//6 67//6 34//6
f 67//6 68//6 34//6
f 68//6 9//6 34//6
f 10//20 9//20 68//20
f 68//20 63//20 10//20
f 63//21 68//21 67//21
f 67//21 64//21 63//21
f 64//22 67//22 66//22
f 66//22 65//22 64//22
f 65//23 66//23 4//23
f 4//23 3//23 65//23
f 2//24 1//24 62//24
f 62//24 57//24 2//24
f 57//25 62//25 61//25
f 61//25 58//25 57//25
f 58//26 61//26 60//26
f 60//26 59//26 58//26
f 59//27 60//27 41//27
f 41//27 19//27 59//27
f 12//28 11//28 28//28
f 28//28 42//28 12//28
f 42//29 28//29 30//29
f 30//29 44//29 42//29
f 44//30 30//30 29//30
f 29//30 43//30 44//30
f 43//31 29//31 20//31
f 20//31 40//31 43//31
f 40//32 20//32 19//32
f 19//32 41//32 40//32
usemtl One1mat
f 69//2 70//2 71//2
f 69//2 72//2 70//2
f 73//32 74//32 75//32
f 76//32 74//32 73//32
f 69//33 71//33 75//33
f 75//33 74//33 69//33
f 71//34 70//34 73//34
f 73//34 75//34 71//34
f 70//35 72//35 76//35
f 76//35 73//35 70//35
f 72//36 69//36 74//36
f 74//36 76//36 72//36
usemtl One2mat
f 77//7 78//7 79//7
f 77//7 80//7 78//7
f 81//3 82//3 83//3
f 84//3 82//3 81//3
f 77//37 79//37 83//37
f 83//37 82//37 77//37
f 79//38 78//38 81//38
f 81//38 83//38 79//38
f 78//39 80//39 84//39
f 84//39 81//39 78//39
f 80//40 77//40 82//40
f 82//40 84//40 80//40
usemtl One3mat
f 85//4 86//4 87//4
f 85//4 88//4 86//4
f 89//1 90//1 91//1
f 92//1 90//1 89//1
f 85//41 87//41 91//41
f 91//41 90//41 85//41
f 87//5 86//5 89//5
f 89//5 91//5 87//5
f 86//42 88//42 92//42
f 92//42 89//42 86//42
f 88//6 85//6 90//6
f 90//6 92//6 88//6
