# Blender v3.6.2 OBJ File: 'phantom.blend'
# www.blender.org
mtllib Entry1.mtl
o /ambf/env/Entry1_Entry1_Cube.012
v -0.002964 -0.001812 0.000220
v -0.002964 0.001812 -0.000220
v -0.002964 -0.001812 -0.000220
v -0.002964 0.001812 0.000220
v 0.002964 0.001812 -0.000220
v 0.002964 0.001812 0.000220
v 0.002964 -0.001812 -0.000220
v 0.002964 -0.001812 0.000220
v -0.002143 -0.001310 -0.000220
v -0.002143 0.001310 0.000220
v -0.002143 -0.001310 0.000220
v -0.002143 0.001310 -0.000220
v 0.002143 0.001310 0.000220
v 0.002143 -0.001310 -0.000220
v 0.002143 0.001310 -0.000220
v 0.002143 -0.001310 0.000220
vt 0.951140 0.000221
vt 0.999779 0.401618
vt 0.999779 0.000221
vt 0.803897 0.000221
vt 0.852537 0.656680
vt 0.852537 0.000221
vt 0.951140 0.402059
vt 0.999779 0.803456
vt 0.999779 0.402059
vt 0.852978 0.000221
vt 0.901618 0.656680
vt 0.901618 0.000221
vt 0.450699 0.947334
vt 0.402059 0.657121
vt 0.402059 0.947334
vt 0.950699 0.474845
vt 0.902059 0.000221
vt 0.902059 0.474845
vt 0.401618 0.657121
vt 0.352978 0.947334
vt 0.401618 0.947334
vt 0.950699 0.475286
vt 0.902059 0.949910
vt 0.950699 0.949910
vt 0.401618 0.000221
vt 0.055813 0.091138
vt 0.346026 0.091138
vt 0.000221 0.656680
vt 0.346026 0.565762
vt 0.055813 0.565762
vt 0.803456 0.656680
vt 0.803456 0.000221
vt 0.747864 0.565762
vt 0.402059 0.000221
vt 0.457651 0.565762
vt 0.457651 0.091138
vt 0.951140 0.401618
vt 0.803897 0.656680
vt 0.951140 0.803456
vt 0.852978 0.656680
vt 0.450699 0.657121
vt 0.950699 0.000221
vt 0.352978 0.657121
vt 0.902059 0.475286
vt 0.401618 0.656680
vt 0.000221 0.000221
vt 0.402059 0.656680
vt 0.747864 0.091138
vn -1.0000 0.0000 0.0000
vn 0.0000 1.0000 0.0000
vn 1.0000 0.0000 0.0000
vn 0.0000 -1.0000 0.0000
vn 0.0000 0.0000 -1.0000
vn 0.0000 0.0000 1.0000
usemtl Material.021
s 1
f 1/1/1 2/2/1 3/3/1
f 4/4/2 5/5/2 2/6/2
f 6/7/3 7/8/3 5/9/3
f 8/10/4 3/11/4 7/12/4
f 9/13/3 10/14/3 11/15/3
f 12/16/4 13/17/4 10/18/4
f 14/19/1 13/20/1 15/21/1
f 9/22/2 16/23/2 14/24/2
f 5/25/5 14/26/5 15/27/5
f 3/28/5 12/29/5 9/30/5
f 6/31/6 4/32/6 13/33/6
f 1/34/6 16/35/6 11/36/6
f 1/1/1 4/37/1 2/2/1
f 4/4/2 6/38/2 5/5/2
f 6/7/3 8/39/3 7/8/3
f 8/10/4 1/40/4 3/11/4
f 9/13/3 12/41/3 10/14/3
f 12/16/4 15/42/4 13/17/4
f 14/19/1 16/43/1 13/20/1
f 9/22/2 11/44/2 16/23/2
f 15/27/5 12/29/5 2/45/5
f 5/25/5 7/46/5 14/26/5
f 15/27/5 2/45/5 5/25/5
f 9/30/5 14/26/5 7/46/5
f 3/28/5 2/45/5 12/29/5
f 9/30/5 7/46/5 3/28/5
f 16/35/6 8/47/6 6/31/6
f 4/32/6 1/34/6 11/36/6
f 4/32/6 11/36/6 10/48/6
f 13/33/6 16/35/6 6/31/6
f 4/32/6 10/48/6 13/33/6
f 1/34/6 8/47/6 16/35/6
