# Blender v2.83.5 OBJ File: 'env.blend'
# www.blender.org
mtllib Ledge.mtl
o Ledge_Cube.001
v -0.563692 -1.734384 -0.023462
v -0.563692 -1.734384 0.023462
v -0.563692 1.734384 -0.023462
v -0.563692 1.734384 0.023462
v 0.563692 -1.734384 -0.023462
v 0.563692 -1.734384 0.023462
v 0.563692 1.734384 -0.023462
v 0.563692 1.734384 0.023462
vt 0.980315 0.995049
vt 0.960921 0.995049
vt 0.960921 0.004950
vt 0.980315 0.004950
vt 0.980509 0.326619
vt 0.999903 0.326619
vt 0.999903 0.648411
vt 0.980509 0.648411
vt 0.960727 0.995049
vt 0.941333 0.995049
vt 0.941333 0.004950
vt 0.960726 0.004950
vt 0.980509 0.001609
vt 0.999903 0.001609
vt 0.999903 0.323401
vt 0.980509 0.323401
vt 0.472948 0.004950
vt 0.938906 0.004951
vt 0.938906 0.995049
vt 0.472948 0.995049
vt 0.468288 0.995049
vt 0.002330 0.995049
vt 0.002330 0.004950
vt 0.468288 0.004951
vn -1.0000 0.0000 0.0000
vn 0.0000 1.0000 0.0000
vn 1.0000 0.0000 0.0000
vn 0.0000 -1.0000 0.0000
vn 0.0000 0.0000 -1.0000
vn 0.0000 0.0000 1.0000
usemtl Material
s off
f 1/1/1 2/2/1 4/3/1 3/4/1
f 3/5/2 4/6/2 8/7/2 7/8/2
f 7/9/3 8/10/3 6/11/3 5/12/3
f 5/13/4 6/14/4 2/15/4 1/16/4
f 3/17/5 7/18/5 5/19/5 1/20/5
f 8/21/6 4/22/6 2/23/6 6/24/6
