# Blender v2.91.0 OBJ File: 'phantom_deep.blend'
# www.blender.org
mtllib Needle.mtl
o /ambf/env/NeedleCollision_001_/ambf/env/NeedleCollision_001_Needle_Cylinder.012
v 0.005867 0.000982 0.003545
v 0.004249 0.003242 0.004215
v -0.000785 0.000984 0.006301
v 0.001197 0.003513 0.005479
v -0.015146 0.001096 -0.017730
v -0.011439 0.003526 -0.020772
v -0.009818 0.001663 -0.022106
v -0.009694 -0.001362 -0.022211
v 0.005683 -0.001409 0.003621
v 0.004249 -0.003242 0.004215
v 0.001197 -0.003513 0.005479
v -0.011439 -0.003526 -0.020772
v -0.015045 -0.001387 -0.017815
v -0.000602 -0.001409 0.006225
v -0.013758 0.003294 -0.018870
v -0.013758 -0.003294 -0.018870
vt 0.688254 0.024361
vt 0.546525 0.133773
vt 0.688448 0.476133
vt 0.187094 0.500000
vt 0.047501 0.562500
vt 0.042354 0.500000
vt 0.303606 0.562500
vt 0.332569 0.500000
vt 0.426396 0.562500
vt 0.457440 0.500000
vt 0.559339 0.562500
vt 0.562431 0.500000
vt 0.667431 0.500000
vt 0.812906 0.500000
vt 0.696394 0.562500
vt 0.938776 0.562500
vt 0.937573 0.500000
vt 1.000000 0.500000
vt 0.953475 0.133773
vt 0.840574 0.031067
vt 0.962498 0.338672
vt 0.537502 0.338673
vt 0.840571 0.468943
vt 0.171610 0.562500
vt 0.828390 0.562500
vt 1.000000 0.562500
vn 0.3828 -0.0000 0.9238
vn 0.3827 0.0002 0.9239
vn 0.3827 0.0001 0.9239
vn -0.6563 0.6428 0.3952
vn 0.0740 0.9966 -0.0351
vn 0.6839 0.6088 -0.4020
vn 0.8563 -0.0821 -0.5099
vn 0.6581 -0.6420 -0.3934
vn 0.6581 -0.6422 -0.3929
vn 0.0743 -0.9966 -0.0352
vn 0.0743 -0.9966 -0.0350
vn -0.6325 -0.6753 0.3794
vn -0.8544 -0.0816 0.5132
vn 0.3826 0.0001 0.9239
vn 0.3827 -0.0001 0.9239
vn 0.3828 0.0002 0.9239
vn 0.3827 0.0004 0.9239
vn 0.3828 -0.0001 0.9238
vn -0.6650 0.6289 0.4028
vn -0.6651 0.6285 0.4032
vn -0.0712 0.9969 0.0348
vn 0.5688 0.7447 -0.3492
vn 0.5689 0.7448 -0.3487
vn 0.8526 0.0535 -0.5198
vn 0.5924 -0.7190 -0.3635
vn 0.5921 -0.7192 -0.3636
vn -0.0712 -0.9969 0.0348
vn -0.6474 -0.6537 0.3918
vn -0.8573 -0.0524 0.5121
usemtl Material.008
s 1
f 1/1/1 2/2/2 3/3/3
f 4/4/4 5/5/4 3/6/4
f 6/7/5 4/4/5 2/8/5
f 7/9/6 2/8/6 1/10/6
f 8/11/7 1/10/7 9/12/7
f 10/13/8 8/11/9 9/12/9
f 11/14/10 12/15/11 10/13/10
f 13/16/12 11/14/12 14/17/12
f 3/18/13 13/16/13 14/17/13
f 10/19/14 9/20/15 11/21/16
f 4/22/17 3/3/3 2/2/2
f 3/3/3 14/23/18 9/20/15
f 14/23/18 11/21/16 9/20/15
f 9/20/15 1/1/1 3/3/3
f 4/4/19 15/24/20 5/5/19
f 4/4/21 6/7/21 15/24/21
f 2/8/22 7/9/23 6/7/23
f 1/10/24 8/11/24 7/9/24
f 12/15/25 8/11/26 10/13/26
f 16/25/27 12/15/27 11/14/27
f 13/16/28 16/25/28 11/14/28
f 3/18/29 5/26/29 13/16/29
o /ambf/env/NeedleCollision_002_/ambf/env/NeedleCollision_002_Needle_Cylinder.013
v -0.036018 0.000000 -0.036350
v -0.015209 0.000379 -0.017680
v -0.014630 0.002356 -0.018156
v -0.035105 0.003128 -0.037717
v -0.012698 0.003705 -0.019740
v -0.010517 0.002853 -0.021533
v -0.033261 0.003536 -0.040474
v -0.031974 0.001426 -0.042403
v -0.009588 0.000671 -0.022292
v -0.032065 -0.001717 -0.042261
v -0.009831 -0.001677 -0.022090
v -0.011988 -0.003836 -0.020326
v -0.014862 -0.002041 -0.017963
v -0.035105 -0.003128 -0.037717
v -0.033261 -0.003536 -0.040474
vt 0.018568 0.625000
vt 0.016483 0.562500
vt 0.108746 0.562500
vt 0.154149 0.625000
vt 0.233065 0.562500
vt 0.362244 0.562500
vt 0.301103 0.625000
vt 0.438577 0.625000
vt 0.470800 0.562500
vt 0.575798 0.625000
vt 0.574577 0.562500
vt 0.728940 0.562500
vt 0.909871 0.562500
vt 0.845851 0.625000
vt 0.969235 0.625000
vt 1.000000 0.562500
vt 0.698897 0.625000
vn -0.6288 0.3512 0.6937
vn -0.3143 0.8770 0.3636
vn -0.3143 0.8771 0.3632
vn 0.2024 0.9569 -0.2085
vn 0.5958 0.4781 -0.6453
vn 0.6665 -0.1319 -0.7337
vn 0.6662 -0.1321 -0.7340
vn 0.4150 -0.7871 -0.4563
vn 0.4151 -0.7873 -0.4560
vn -0.2822 -0.8976 0.3386
vn -0.6551 -0.1798 0.7338
vn -0.6040 0.4606 0.6504
vn -0.0935 0.9920 0.0847
vn 0.4456 0.7367 -0.5085
vn 0.6669 -0.0529 -0.7433
vn 0.6664 -0.0529 -0.7437
vn 0.4416 -0.7595 -0.4776
vn 0.4419 -0.7594 -0.4776
vn -0.0937 -0.9920 0.0841
vn -0.6073 -0.4603 0.6476
usemtl Material.009
s 1
f 17/27/30 18/28/30 19/29/30
f 20/30/31 19/29/32 21/31/31
f 22/32/33 23/33/33 21/31/33
f 24/34/34 22/32/34 25/35/34
f 26/36/35 25/35/36 27/37/36
f 28/38/37 26/36/38 27/37/38
f 29/39/39 30/40/39 28/38/39
f 17/41/40 29/39/40 18/42/40
f 19/29/41 20/30/41 17/27/41
f 21/31/42 23/33/42 20/30/42
f 24/34/43 23/33/43 22/32/43
f 26/36/44 24/34/45 25/35/45
f 28/38/46 31/43/47 26/36/46
f 30/40/48 31/43/48 28/38/48
f 17/41/49 30/40/49 29/39/49
o /ambf/env/NeedleCollision_003_/ambf/env/NeedleCollision_003_Needle_Cylinder.014
v -0.061238 0.000000 -0.048396
v -0.035910 -0.000989 -0.036513
v -0.035610 0.002287 -0.036963
v -0.033477 0.003731 -0.040154
v -0.059888 0.003839 -0.052835
v -0.032184 0.001979 -0.042085
v -0.059133 0.001008 -0.055347
v -0.031856 -0.000402 -0.042576
v -0.059183 -0.001371 -0.055184
v -0.032585 -0.002869 -0.041488
v -0.059620 -0.003213 -0.053734
v -0.034645 -0.003632 -0.038397
v -0.061026 -0.002320 -0.049105
v -0.061026 0.002320 -0.049105
v -0.060370 -0.003633 -0.051265
vt 0.010582 0.687500
vt 0.000000 0.625000
vt 0.102306 0.625000
vt 0.282998 0.625000
vt 0.290062 0.687500
vt 0.409792 0.625000
vt 0.456429 0.687500
vt 0.517249 0.625000
vt 0.560839 0.687500
vt 0.639310 0.625000
vt 0.664938 0.687500
vt 0.805704 0.625000
vt 0.893737 0.687500
vt 0.957303 0.625000
vt 0.106265 0.687500
vt 0.779581 0.687500
vt 0.983892 0.687500
vn -0.4140 0.1610 0.8959
vn -0.1506 0.9348 0.3217
vn -0.1523 0.9336 0.3243
vn -0.1554 0.9316 0.3287
vn 0.2648 0.7957 -0.5447
vn 0.2649 0.7955 -0.5450
vn 0.4219 0.2385 -0.8747
vn 0.3844 -0.4652 -0.7974
vn 0.0942 -0.9793 -0.1792
vn 0.0937 -0.9793 -0.1793
vn -0.3144 -0.6462 0.6954
vn -0.4108 0.3006 0.8607
vn -0.1569 0.9305 0.3310
vn 0.3055 0.6765 -0.6701
vn 0.4195 -0.0709 -0.9050
vn 0.4200 -0.0708 -0.9048
vn 0.3267 -0.6312 -0.7034
vn 0.0727 -0.9867 -0.1453
vn 0.0733 -0.9867 -0.1452
vn 0.0723 -0.9867 -0.1457
vn -0.2273 -0.8613 0.4545
vn -0.4147 -0.3004 0.8589
usemtl Material.010
s 1
f 32/44/50 33/45/50 34/46/50
f 35/47/51 36/48/52 34/46/53
f 36/48/54 35/47/55 37/49/54
f 38/50/56 37/49/56 39/51/56
f 40/52/57 39/51/57 41/53/57
f 42/54/58 41/53/59 43/55/59
f 44/56/60 43/55/60 33/57/60
f 45/58/61 32/44/61 34/46/61
f 34/46/53 36/48/52 45/58/62
f 37/49/63 38/50/63 36/48/63
f 39/51/64 40/52/65 38/50/65
f 42/54/66 40/52/66 41/53/66
f 46/59/67 42/54/68 43/55/69
f 44/56/70 46/59/70 43/55/70
f 33/57/71 32/60/71 44/56/71
o /ambf/env/NeedleCollision_004_/ambf/env/NeedleCollision_004_Needle_Cylinder.015
v -0.088905 0.001393 -0.052750
v -0.061225 -0.000702 -0.048440
v -0.061127 0.001759 -0.048770
v -0.088905 0.003698 -0.055036
v -0.060576 0.003423 -0.050585
v -0.059717 0.003435 -0.053418
v -0.059092 0.000703 -0.055478
v -0.088905 0.002803 -0.058621
v -0.088904 0.000000 -0.059965
v -0.059320 -0.002286 -0.054717
v -0.059931 -0.003599 -0.052712
v -0.088905 -0.002803 -0.058621
v -0.060794 -0.003125 -0.049862
v -0.088905 -0.003698 -0.055036
v -0.088903 -0.001095 -0.052616
vt 0.061522 0.750000
vt 0.000000 0.687500
vt 0.078182 0.687500
vt 0.202055 0.750000
vt 0.188453 0.687500
vt 0.317978 0.687500
vt 0.469978 0.687500
vt 0.364156 0.750000
vt 0.499629 0.750000
vt 0.605464 0.687500
vt 0.713908 0.687500
vt 0.635844 0.750000
vt 0.845641 0.687500
vt 0.797945 0.750000
vt 0.969527 0.687500
vt 0.952542 0.750000
vt 0.000000 0.750000
vn -0.1420 0.1373 0.9803
vn -0.1423 0.1371 0.9803
vn -0.0959 0.7480 0.6567
vn 0.0086 0.9999 0.0069
vn 0.1254 0.6154 -0.7782
vn 0.1498 -0.2547 -0.9554
vn 0.1496 -0.2544 -0.9555
vn 0.0844 -0.8452 -0.5278
vn -0.0096 -0.9869 0.1612
vn -0.1204 -0.5183 0.8467
vn -0.1199 -0.5184 0.8467
vn -0.1495 0.0528 0.9874
vn -0.1497 0.0531 0.9873
vn -0.1103 0.6999 0.7057
vn -0.1101 0.6997 0.7059
vn 0.0222 0.9700 -0.2422
vn 0.1245 0.4290 -0.8947
vn 0.1255 -0.4290 -0.8946
vn 0.1255 -0.4285 -0.8948
vn 0.0228 -0.9699 -0.2426
vn 0.0227 -0.9700 -0.2422
vn 0.0224 -0.9700 -0.2422
vn -0.1198 -0.6761 0.7270
vn -0.1201 -0.6759 0.7271
usemtl Material.011
s 1
f 47/61/72 48/62/73 49/63/73
f 50/64/74 49/63/74 51/65/74
f 50/64/75 51/65/75 52/66/75
f 53/67/76 54/68/76 52/66/76
f 55/69/77 53/67/77 56/70/78
f 57/71/79 58/72/79 56/70/79
f 59/73/80 60/74/80 57/71/80
f 48/75/81 61/76/82 59/73/81
f 47/61/83 61/77/84 48/62/84
f 49/63/85 50/64/86 47/61/85
f 52/66/87 54/68/87 50/64/87
f 55/69/88 54/68/88 53/67/88
f 56/70/89 58/72/90 55/69/89
f 60/74/91 58/72/92 57/71/93
f 61/76/94 60/74/95 59/73/95
o /ambf/env/NeedleCollision_005_/ambf/env/NeedleCollision_005_Needle_Cylinder.016
v -0.117014 0.003125 -0.049862
v -0.088905 0.001095 -0.052616
v -0.088903 0.003698 -0.055036
v -0.118091 0.003434 -0.053419
v -0.088903 0.002803 -0.058621
v -0.088904 0.000000 -0.059965
v -0.118716 0.000703 -0.055478
v -0.118487 -0.002286 -0.054717
v -0.088903 -0.002803 -0.058621
v -0.088904 -0.003694 -0.056263
v -0.117543 -0.003861 -0.051610
v -0.088904 -0.003074 -0.054128
v -0.088903 -0.001393 -0.052750
v -0.116681 -0.001759 -0.048770
v -0.116582 0.000702 -0.048440
vt 0.154363 0.812500
vt 0.047453 0.750000
vt 0.202039 0.750000
vt 0.317994 0.812500
vt 0.364140 0.750000
vt 0.499628 0.750000
vt 0.469979 0.812500
vt 0.605468 0.812500
vt 0.635860 0.750000
vt 0.746441 0.750000
vt 0.763273 0.812500
vt 0.843732 0.750000
vt 0.938484 0.750000
vt 0.921824 0.812500
vt 1.000000 0.812500
vt 1.000000 0.750000
vt 0.030479 0.812500
vn 0.1201 0.6759 0.7271
vn 0.1199 0.6757 0.7273
vn -0.0222 0.9700 -0.2422
vn -0.1245 0.4290 -0.8947
vn -0.1255 -0.4290 -0.8946
vn -0.0521 -0.9343 -0.3528
vn -0.0519 -0.9342 -0.3530
vn 0.0508 -0.9591 0.2785
vn 0.1180 -0.6299 0.7677
vn 0.1183 -0.6296 0.7679
vn 0.1497 -0.0531 0.9873
vn 0.1204 0.5183 0.8467
vn -0.0041 0.9961 0.0878
vn -0.1254 0.6154 -0.7782
vn -0.1498 -0.2547 -0.9553
vn -0.0729 -0.8983 -0.4332
vn 0.0732 -0.8123 0.5786
vn 0.0732 -0.8121 0.5789
vn 0.1423 -0.1372 0.9803
usemtl Material.012
s 1
f 62/78/96 63/79/96 64/80/97
f 65/81/98 64/80/98 66/82/98
f 67/83/99 68/84/99 66/82/99
f 69/85/100 67/83/100 70/86/100
f 71/87/101 72/88/102 70/86/102
f 73/89/103 72/88/103 71/87/103
f 74/90/104 75/91/105 73/89/105
f 76/92/106 74/90/106 63/93/106
f 63/79/107 62/78/107 76/94/107
f 64/80/108 65/81/108 62/78/108
f 68/84/109 65/81/109 66/82/109
f 67/83/110 69/85/110 68/84/110
f 72/88/111 69/85/111 70/86/111
f 75/91/112 72/88/113 73/89/113
f 76/92/114 75/91/114 74/90/114
o /ambf/env/NeedleCollision_006_/ambf/env/NeedleCollision_006_Needle_Cylinder.017
v -0.116781 0.002319 -0.049105
v -0.141898 0.000989 -0.036513
v -0.116570 0.000000 -0.048396
v -0.142695 0.002994 -0.037704
v -0.117919 0.003839 -0.052834
v -0.145624 0.001979 -0.042085
v -0.118675 0.001008 -0.055347
v -0.145952 -0.000402 -0.042576
v -0.118624 -0.001372 -0.055184
v -0.117919 -0.003839 -0.052834
v -0.145223 -0.002869 -0.041488
v -0.116781 -0.002319 -0.049105
v -0.143163 -0.003632 -0.038397
v -0.141993 -0.001359 -0.036656
v -0.144331 0.003731 -0.040154
vt 0.106249 0.812500
vt 0.042688 0.875000
vt 0.016102 0.812500
vt 0.150677 0.875000
vt 0.290044 0.812500
vt 0.409796 0.875000
vt 0.456434 0.812500
vt 0.517231 0.875000
vt 0.560865 0.812500
vt 0.709957 0.812500
vt 0.639302 0.875000
vt 0.893751 0.812500
vt 0.805687 0.875000
vt 0.939728 0.875000
vt 0.989422 0.812500
vt 0.283011 0.875000
vt 1.000000 0.875000
vn 0.4147 0.3003 0.8590
vn 0.1683 0.9297 0.3276
vn -0.3054 0.6765 -0.6702
vn -0.4199 -0.0710 -0.9048
vn -0.2944 -0.7019 -0.6485
vn 0.1779 -0.9290 0.3244
vn 0.4131 -0.3004 0.8597
vn 0.3415 0.5766 0.7422
vn 0.1030 0.9694 0.2228
vn -0.2648 0.7957 -0.5447
vn -0.4219 0.2385 -0.8747
vn -0.3844 -0.4652 -0.7974
vn -0.1065 -0.9795 -0.1711
vn -0.1059 -0.9795 -0.1712
vn 0.3066 -0.6732 0.6729
vn 0.3069 -0.6733 0.6727
vn 0.4213 -0.0721 0.9040
vn 0.4210 -0.0720 0.9042
usemtl Material.013
s 1
f 77/95/115 78/96/115 79/97/115
f 80/98/116 77/95/116 81/99/116
f 82/100/117 81/99/117 83/101/117
f 84/102/118 83/101/118 85/103/118
f 86/104/119 87/105/119 85/103/119
f 88/106/120 89/107/120 86/104/120
f 90/108/121 88/106/121 79/109/121
f 80/98/122 78/96/122 77/95/122
f 91/110/123 80/98/123 81/99/123
f 81/99/124 82/100/124 91/110/124
f 83/101/125 84/102/125 82/100/125
f 85/103/126 87/105/126 84/102/126
f 86/104/127 89/107/128 87/105/128
f 88/106/129 90/108/129 89/107/130
f 78/111/131 90/108/131 79/109/132
o /ambf/env/NeedleCollision_007_/ambf/env/NeedleCollision_007_Needle_Cylinder.018
v -0.142235 0.002236 -0.037015
v -0.163724 0.000886 -0.018605
v -0.141850 0.000000 -0.036438
v -0.143445 0.003607 -0.038827
v -0.164935 0.002468 -0.019591
v -0.144884 0.003283 -0.040981
v -0.145871 0.001084 -0.042461
v -0.167134 0.001053 -0.021402
v -0.145796 -0.001404 -0.042342
v -0.166997 -0.001284 -0.021288
v -0.144884 -0.003283 -0.040981
v -0.164935 -0.002468 -0.019591
v -0.143445 -0.003607 -0.038827
v -0.142235 -0.002236 -0.037015
v -0.163638 -0.000645 -0.018534
vt 0.102168 0.875000
vt 0.061329 0.937500
vt 0.014441 0.875000
vt 0.215067 0.875000
vt 0.209381 0.937500
vt 0.329259 0.875000
vt 0.452974 0.875000
vt 0.429741 0.937500
vt 0.562056 0.875000
vt 0.589446 0.937500
vt 0.670741 0.875000
vt 0.790618 0.937500
vt 0.784933 0.875000
vt 0.897832 0.875000
vt 0.956483 0.937500
vt 0.990176 0.875000
vt 0.000000 0.937500
vn 0.6109 0.2948 0.7347
vn 0.3304 0.8456 0.4192
vn 0.3300 0.8458 0.4192
vn -0.1166 0.9906 -0.0711
vn -0.1165 0.9906 -0.0716
vn -0.5514 0.6220 -0.5560
vn -0.7026 -0.0551 -0.7095
vn -0.5373 -0.6500 -0.5374
vn -0.1163 -0.9906 -0.0713
vn 0.3304 -0.8456 0.4192
vn 0.3302 -0.8456 0.4195
vn 0.6119 -0.2948 0.7340
vn 0.6320 0.0710 0.7717
vn 0.4432 0.6934 0.5682
vn -0.3411 0.8956 -0.2856
vn -0.7028 -0.0757 -0.7073
vn -0.3125 -0.9142 -0.2581
vn 0.4581 -0.6668 0.5879
usemtl Material.014
s 1
f 92/112/133 93/113/133 94/114/133
f 95/115/134 96/116/134 92/112/135
f 97/117/136 96/116/137 95/115/137
f 98/118/138 99/119/138 97/117/138
f 100/120/139 99/119/139 98/118/139
f 101/121/140 100/120/140 102/122/140
f 103/123/141 102/122/141 104/124/141
f 103/123/142 104/124/142 105/125/143
f 106/126/144 105/125/144 94/127/144
f 94/114/145 93/113/145 106/128/145
f 96/116/146 93/113/146 92/112/146
f 97/117/147 99/119/147 96/116/147
f 100/120/148 101/121/148 99/119/148
f 103/123/149 101/121/149 102/122/149
f 105/125/150 106/126/150 103/123/150
o /ambf/env/NeedleCollision_008_/ambf/env/NeedleCollision_008_Needle_Cylinder.019
v -0.163614 0.000459 -0.018513
v -0.179030 0.000000 0.005470
v -0.163676 -0.000684 -0.018564
v -0.179292 -0.000888 0.005360
v -0.164204 -0.001802 -0.018998
v -0.180312 -0.001467 0.004938
v -0.165416 -0.002378 -0.019991
v -0.166640 -0.001789 -0.020997
v -0.181482 -0.000818 0.004453
v -0.167255 -0.000197 -0.021503
v -0.181544 0.000742 0.004428
v -0.167016 0.001113 -0.021305
v -0.166464 0.001934 -0.020853
v -0.180312 0.001467 0.004938
v -0.165416 0.002378 -0.019991
v -0.164204 0.001802 -0.018998
v -0.179292 0.000888 0.005360
vt 1.000000 0.937500
vt 0.984540 1.000000
vt 0.953061 0.937500
vt 0.894917 1.000000
vt 0.863937 0.937500
vt 0.754109 1.000000
vt 0.750090 0.937500
vt 0.634528 0.937500
vt 0.593433 1.000000
vt 0.513052 0.937500
vt 0.417018 1.000000
vt 0.421487 0.937500
vt 0.347301 0.937500
vt 0.245888 1.000000
vt 0.249908 0.937500
vt 0.136061 0.937500
vt 0.105084 1.000000
vt 0.031071 0.937500
vt 0.393682 0.435100
vt 0.019085 0.256041
vt 0.137047 0.053518
vt 0.250123 0.486951
vt 0.106316 0.435100
vt 0.377428 0.058546
vt 0.480917 0.256036
vt 0.010288 1.000000
vn 0.8398 -0.0696 0.5385
vn 0.8401 -0.0696 0.5380
vn 0.7177 -0.5191 0.4641
vn 0.2805 -0.9384 0.2019
vn -0.3203 -0.9342 -0.1572
vn -0.7822 -0.4418 -0.4393
vn -0.7821 -0.4415 -0.4399
vn -0.8495 0.2270 -0.4763
vn -0.8492 0.2269 -0.4768
vn -0.6656 0.6501 -0.3664
vn -0.2885 0.9475 -0.1378
vn -0.2883 0.9476 -0.1376
vn 0.2805 0.9384 0.2019
vn 0.7318 0.4918 0.4718
vn -0.3830 0.0000 0.9238
vn -0.3825 -0.0004 0.9240
vn -0.3823 -0.0005 0.9240
vn 0.7998 -0.3009 0.5195
vn 0.7997 -0.3013 0.5193
vn 0.3873 -0.8806 0.2730
vn 0.3867 -0.8810 0.2727
vn 0.3877 -0.8804 0.2730
vn -0.4087 -0.8895 -0.2044
vn -0.8755 -0.0418 -0.4815
vn -0.8755 -0.0423 -0.4814
vn -0.8757 -0.0420 -0.4810
vn -0.4281 0.8780 -0.2140
vn -0.4281 0.8781 -0.2136
vn 0.3877 0.8804 0.2730
vn 0.3871 0.8808 0.2728
vn -0.3853 -0.0001 0.9228
vn -0.3847 -0.0002 0.9230
vn -0.3829 0.0005 0.9238
vn -0.3825 0.0005 0.9239
vn 0.7997 0.3004 0.5198
usemtl Material.015
s 1
f 107/129/151 108/130/152 109/131/151
f 109/131/153 110/132/153 111/133/153
f 112/134/154 113/135/154 111/133/154
f 113/135/155 112/134/155 114/136/155
f 114/136/156 115/137/157 116/138/156
f 116/138/158 117/139/159 118/140/158
f 118/140/160 117/139/160 119/141/160
f 120/142/161 121/143/161 119/141/162
f 121/143/163 120/142/163 122/144/163
f 123/145/164 107/146/164 122/144/164
f 110/147/165 120/148/166 117/149/167
f 109/131/168 108/130/169 110/132/168
f 111/133/170 110/132/171 112/134/172
f 114/136/173 112/134/173 115/137/173
f 115/137/174 117/139/175 116/138/176
f 117/139/177 120/142/177 119/141/178
f 120/142/179 123/145/180 122/144/180
f 108/150/181 123/151/182 110/147/165
f 110/147/165 123/151/182 120/148/166
f 117/149/167 115/152/183 112/153/184
f 112/153/184 110/147/165 117/149/167
f 123/145/185 108/154/185 107/146/185
