# Blender v2.93.1 OBJ File: 'phantom_deep_with_thread.blend'
# www.blender.org
mtllib phantom_collision.mtl
o phantom_collision_Plane.005
v -0.001153 -0.445585 0.163825
v -0.092626 -0.445585 0.164104
v -0.002966 -0.445585 0.229213
v -0.015626 -0.445585 0.229771
v -0.044780 -0.445585 0.199379
v -0.044727 -0.445585 0.163267
v -0.001153 -0.543333 0.163825
v -0.092626 -0.543333 0.164104
v -0.002966 -0.543333 0.229213
v -0.015626 -0.543333 0.229771
v -0.044780 -0.543333 0.199379
v -0.044727 -0.543333 0.163267
v -0.394606 -0.864509 -0.159341
v -0.394606 -0.864509 0.159341
v -0.394606 0.864509 -0.159341
v -0.394606 0.864509 0.159341
v 0.394606 -0.864509 -0.159341
v 0.394606 -0.864509 0.159341
v 0.394606 0.864509 -0.159341
v 0.394606 0.864509 0.159341
v 0.002614 0.624710 0.163825
v 0.094088 0.624710 0.164104
v 0.004427 0.624710 0.229213
v 0.017087 0.624710 0.229771
v 0.046241 0.624710 0.199379
v 0.046189 0.624710 0.163267
v 0.002614 0.317260 0.163825
v 0.094088 0.317260 0.164104
v 0.004427 0.317260 0.229213
v 0.017087 0.317260 0.229771
v 0.046241 0.317260 0.199379
v 0.046189 0.317260 0.163267
v 0.002614 0.272545 0.163825
v 0.094088 0.272545 0.164104
v 0.004427 0.272545 0.229213
v 0.017087 0.272545 0.229771
v 0.046241 0.272545 0.199379
v 0.046189 0.272545 0.163267
v 0.002614 0.081241 0.163825
v 0.094088 0.081241 0.164104
v 0.004427 0.081241 0.229213
v 0.017087 0.081241 0.229771
v 0.046241 0.081241 0.199379
v 0.046189 0.081241 0.163267
v 0.002614 0.038022 0.163825
v 0.094088 0.038022 0.164104
v 0.004427 0.038022 0.229213
v 0.017087 0.038022 0.229771
v 0.046241 0.038022 0.199379
v 0.046189 0.038022 0.163267
v 0.002614 -0.146930 0.163825
v 0.094088 -0.146930 0.164104
v 0.004427 -0.146930 0.229213
v 0.017087 -0.146930 0.229771
v 0.046241 -0.146930 0.199379
v 0.046189 -0.146930 0.163267
v 0.002614 -0.189369 0.163825
v 0.094088 -0.189369 0.164104
v 0.004427 -0.189369 0.229213
v 0.017087 -0.189369 0.229771
v 0.046241 -0.189369 0.199379
v 0.046189 -0.189369 0.163267
v 0.002614 -0.401796 0.163825
v 0.094088 -0.401796 0.164104
v 0.004427 -0.401796 0.229213
v 0.017087 -0.401796 0.229771
v 0.046241 -0.401796 0.199379
v 0.046189 -0.401796 0.163267
v 0.002614 -0.445585 0.163825
v 0.094088 -0.445585 0.164104
v 0.004427 -0.445585 0.229213
v 0.017087 -0.445585 0.229771
v 0.046241 -0.445585 0.199379
v 0.046189 -0.445585 0.163267
v 0.002614 -0.543333 0.163825
v 0.094088 -0.543333 0.164104
v 0.004427 -0.543333 0.229213
v 0.017087 -0.543333 0.229771
v 0.046241 -0.543333 0.199379
v 0.046189 -0.543333 0.163267
v -0.001153 0.624710 0.163825
v -0.092626 0.624710 0.164104
v -0.002966 0.624710 0.229213
v -0.015626 0.624710 0.229771
v -0.044780 0.624710 0.199379
v -0.044727 0.624710 0.163267
v -0.001153 0.317260 0.163825
v -0.092626 0.317260 0.164104
v -0.002966 0.317260 0.229213
v -0.015626 0.317260 0.229771
v -0.044780 0.317260 0.199379
v -0.044727 0.317260 0.163267
v -0.001153 0.272545 0.163825
v -0.092626 0.272545 0.164104
v -0.002966 0.272545 0.229213
v -0.015626 0.272545 0.229771
v -0.044780 0.272545 0.199379
v -0.044727 0.272545 0.163267
v -0.001153 0.081241 0.163825
v -0.092626 0.081241 0.164104
v -0.002966 0.081241 0.229213
v -0.015626 0.081241 0.229771
v -0.044780 0.081241 0.199379
v -0.044727 0.081241 0.163267
v -0.001153 0.038022 0.163825
v -0.092626 0.038022 0.164104
v -0.002966 0.038022 0.229213
v -0.015626 0.038022 0.229771
v -0.044780 0.038022 0.199379
v -0.044727 0.038022 0.163267
v -0.001153 -0.146930 0.163825
v -0.092626 -0.146930 0.164104
v -0.002966 -0.146930 0.229213
v -0.015626 -0.146930 0.229771
v -0.044780 -0.146930 0.199379
v -0.044727 -0.146930 0.163267
v -0.001153 -0.189369 0.163825
v -0.092626 -0.189369 0.164104
v -0.002966 -0.189369 0.229213
v -0.015626 -0.189369 0.229771
v -0.044780 -0.189369 0.199379
v -0.044727 -0.189369 0.163267
v -0.001153 -0.401796 0.163825
v -0.092626 -0.401796 0.164104
v -0.002966 -0.401796 0.229213
v -0.015626 -0.401796 0.229771
v -0.044780 -0.401796 0.199379
v -0.044727 -0.401796 0.163267
vt 0.000000 0.000000
vt 0.000000 1.000000
vt 1.000000 1.000000
vt 1.000000 0.500000
vt 1.000000 0.000000
vt 0.500000 0.000000
vt 0.000000 0.000000
vt 0.500000 0.000000
vt 1.000000 0.000000
vt 1.000000 0.500000
vt 1.000000 1.000000
vt 0.000000 1.000000
vt 0.375000 0.000000
vt 0.625000 0.000000
vt 0.625000 0.250000
vt 0.375000 0.250000
vt 0.625000 0.500000
vt 0.375000 0.500000
vt 0.625000 0.750000
vt 0.375000 0.750000
vt 0.625000 1.000000
vt 0.375000 1.000000
vt 0.125000 0.500000
vt 0.125000 0.750000
vt 0.875000 0.500000
vt 0.875000 0.750000
vt 0.000000 0.000000
vt 0.000000 1.000000
vt 1.000000 1.000000
vt 1.000000 0.500000
vt 1.000000 0.000000
vt 0.500000 0.000000
vt 0.000000 0.000000
vt 0.500000 0.000000
vt 1.000000 0.000000
vt 1.000000 0.500000
vt 1.000000 1.000000
vt 0.000000 1.000000
vt 0.000000 0.000000
vt 0.000000 1.000000
vt 1.000000 1.000000
vt 1.000000 0.500000
vt 1.000000 0.000000
vt 0.500000 0.000000
vt 0.000000 0.000000
vt 0.500000 0.000000
vt 1.000000 0.000000
vt 1.000000 0.500000
vt 1.000000 1.000000
vt 0.000000 1.000000
vt 0.000000 0.000000
vt 0.000000 1.000000
vt 1.000000 1.000000
vt 1.000000 0.500000
vt 1.000000 0.000000
vt 0.500000 0.000000
vt 0.000000 0.000000
vt 0.500000 0.000000
vt 1.000000 0.000000
vt 1.000000 0.500000
vt 1.000000 1.000000
vt 0.000000 1.000000
vt 0.000000 0.000000
vt 0.000000 1.000000
vt 1.000000 1.000000
vt 1.000000 0.500000
vt 1.000000 0.000000
vt 0.500000 0.000000
vt 0.000000 0.000000
vt 0.500000 0.000000
vt 1.000000 0.000000
vt 1.000000 0.500000
vt 1.000000 1.000000
vt 0.000000 1.000000
vt 0.000000 0.000000
vt 0.000000 1.000000
vt 1.000000 1.000000
vt 1.000000 0.500000
vt 1.000000 0.000000
vt 0.500000 0.000000
vt 0.000000 0.000000
vt 0.500000 0.000000
vt 1.000000 0.000000
vt 1.000000 0.500000
vt 1.000000 1.000000
vt 0.000000 1.000000
vt 0.000000 0.000000
vt 0.000000 1.000000
vt 1.000000 1.000000
vt 1.000000 0.500000
vt 1.000000 0.000000
vt 0.500000 0.000000
vt 0.000000 0.000000
vt 0.500000 0.000000
vt 1.000000 0.000000
vt 1.000000 0.500000
vt 1.000000 1.000000
vt 0.000000 1.000000
vt 0.000000 0.000000
vt 0.000000 1.000000
vt 1.000000 1.000000
vt 1.000000 0.500000
vt 1.000000 0.000000
vt 0.500000 0.000000
vt 0.000000 0.000000
vt 0.500000 0.000000
vt 1.000000 0.000000
vt 1.000000 0.500000
vt 1.000000 1.000000
vt 0.000000 1.000000
vt 0.000000 0.000000
vt 0.000000 1.000000
vt 1.000000 1.000000
vt 1.000000 0.500000
vt 1.000000 0.000000
vt 0.500000 0.000000
vt 0.000000 0.000000
vt 0.500000 0.000000
vt 1.000000 0.000000
vt 1.000000 0.500000
vt 1.000000 1.000000
vt 0.000000 1.000000
vt 0.000000 0.000000
vt 0.000000 1.000000
vt 1.000000 1.000000
vt 1.000000 0.500000
vt 1.000000 0.000000
vt 0.500000 0.000000
vt 0.000000 0.000000
vt 0.500000 0.000000
vt 1.000000 0.000000
vt 1.000000 0.500000
vt 1.000000 1.000000
vt 0.000000 1.000000
vn 0.0000 -1.0000 0.0000
vn 0.0000 1.0000 0.0000
vn 0.7217 0.0000 -0.6923
vn -0.9996 0.0000 -0.0277
vn -0.0128 0.0000 0.9999
vn -0.0440 0.0000 -0.9990
vn 0.0175 0.0000 0.9998
vn 0.5934 -0.0000 -0.8049
vn -1.0000 0.0000 0.0000
vn 1.0000 0.0000 0.0000
vn 0.0000 0.0000 -1.0000
vn 0.0000 0.0000 1.0000
vn 0.7217 0.0000 0.6923
vn -0.9996 0.0000 0.0277
vn -0.0128 0.0000 -0.9999
vn -0.0440 0.0000 0.9990
vn 0.0175 0.0000 -0.9998
vn 0.5934 0.0000 0.8049
usemtl Material.021
s off
f 1/1/1 3/2/1 4/3/1 5/4/1 2/5/1 6/6/1
f 7/7/2 12/8/2 8/9/2 11/10/2 10/11/2 9/12/2
f 5/4/3 4/3/3 10/11/3 11/10/3
f 3/2/4 1/1/4 7/7/4 9/12/4
f 1/1/5 6/6/5 12/8/5 7/7/5
f 4/3/6 3/2/6 9/12/6 10/11/6
f 6/6/7 2/5/7 8/9/7 12/8/7
f 2/5/8 5/4/8 11/10/8 8/9/8
usemtl Material
f 13/13/9 14/14/9 16/15/9 15/16/9
f 15/16/2 16/15/2 20/17/2 19/18/2
f 19/18/10 20/17/10 18/19/10 17/20/10
f 17/20/1 18/19/1 14/21/1 13/22/1
f 15/23/11 19/18/11 17/20/11 13/24/11
f 20/17/12 16/25/12 14/26/12 18/19/12
usemtl Material.003
f 21/27/2 23/28/2 24/29/2 25/30/2 22/31/2 26/32/2
f 27/33/1 32/34/1 28/35/1 31/36/1 30/37/1 29/38/1
f 25/30/13 24/29/13 30/37/13 31/36/13
f 23/28/14 21/27/14 27/33/14 29/38/14
f 21/27/15 26/32/15 32/34/15 27/33/15
f 24/29/16 23/28/16 29/38/16 30/37/16
f 26/32/17 22/31/17 28/35/17 32/34/17
f 22/31/18 25/30/18 31/36/18 28/35/18
usemtl Material.005
f 33/39/2 35/40/2 36/41/2 37/42/2 34/43/2 38/44/2
f 39/45/1 44/46/1 40/47/1 43/48/1 42/49/1 41/50/1
f 37/42/13 36/41/13 42/49/13 43/48/13
f 35/40/14 33/39/14 39/45/14 41/50/14
f 33/39/15 38/44/15 44/46/15 39/45/15
f 36/41/16 35/40/16 41/50/16 42/49/16
f 38/44/17 34/43/17 40/47/17 44/46/17
f 34/43/18 37/42/18 43/48/18 40/47/18
usemtl Material.006
f 45/51/2 47/52/2 48/53/2 49/54/2 46/55/2 50/56/2
f 51/57/1 56/58/1 52/59/1 55/60/1 54/61/1 53/62/1
f 49/54/13 48/53/13 54/61/13 55/60/13
f 47/52/14 45/51/14 51/57/14 53/62/14
f 45/51/15 50/56/15 56/58/15 51/57/15
f 48/53/16 47/52/16 53/62/16 54/61/16
f 50/56/17 46/55/17 52/59/17 56/58/17
f 46/55/18 49/54/18 55/60/18 52/59/18
usemtl Material.007
f 57/63/2 59/64/2 60/65/2 61/66/2 58/67/2 62/68/2
f 63/69/1 68/70/1 64/71/1 67/72/1 66/73/1 65/74/1
f 61/66/13 60/65/13 66/73/13 67/72/13
f 59/64/14 57/63/14 63/69/14 65/74/14
f 57/63/15 62/68/15 68/70/15 63/69/15
f 60/65/16 59/64/16 65/74/16 66/73/16
f 62/68/17 58/67/17 64/71/17 68/70/17
f 58/67/18 61/66/18 67/72/18 64/71/18
usemtl Material.016
f 69/75/2 71/76/2 72/77/2 73/78/2 70/79/2 74/80/2
f 75/81/1 80/82/1 76/83/1 79/84/1 78/85/1 77/86/1
f 73/78/13 72/77/13 78/85/13 79/84/13
f 71/76/14 69/75/14 75/81/14 77/86/14
f 69/75/15 74/80/15 80/82/15 75/81/15
f 72/77/16 71/76/16 77/86/16 78/85/16
f 74/80/17 70/79/17 76/83/17 80/82/17
f 70/79/18 73/78/18 79/84/18 76/83/18
usemtl Material.017
f 81/87/1 83/88/1 84/89/1 85/90/1 82/91/1 86/92/1
f 87/93/2 92/94/2 88/95/2 91/96/2 90/97/2 89/98/2
f 85/90/3 84/89/3 90/97/3 91/96/3
f 83/88/4 81/87/4 87/93/4 89/98/4
f 81/87/5 86/92/5 92/94/5 87/93/5
f 84/89/6 83/88/6 89/98/6 90/97/6
f 86/92/7 82/91/7 88/95/7 92/94/7
f 82/91/8 85/90/8 91/96/8 88/95/8
usemtl Material.018
f 93/99/1 95/100/1 96/101/1 97/102/1 94/103/1 98/104/1
f 99/105/2 104/106/2 100/107/2 103/108/2 102/109/2 101/110/2
f 97/102/3 96/101/3 102/109/3 103/108/3
f 95/100/4 93/99/4 99/105/4 101/110/4
f 93/99/5 98/104/5 104/106/5 99/105/5
f 96/101/6 95/100/6 101/110/6 102/109/6
f 98/104/7 94/103/7 100/107/7 104/106/7
f 94/103/8 97/102/8 103/108/8 100/107/8
usemtl Material.019
f 105/111/1 107/112/1 108/113/1 109/114/1 106/115/1 110/116/1
f 111/117/2 116/118/2 112/119/2 115/120/2 114/121/2 113/122/2
f 109/114/3 108/113/3 114/121/3 115/120/3
f 107/112/4 105/111/4 111/117/4 113/122/4
f 105/111/5 110/116/5 116/118/5 111/117/5
f 108/113/6 107/112/6 113/122/6 114/121/6
f 110/116/7 106/115/7 112/119/7 116/118/7
f 106/115/8 109/114/8 115/120/8 112/119/8
usemtl Material.020
f 117/123/1 119/124/1 120/125/1 121/126/1 118/127/1 122/128/1
f 123/129/2 128/130/2 124/131/2 127/132/2 126/133/2 125/134/2
f 121/126/3 120/125/3 126/133/3 127/132/3
f 119/124/4 117/123/4 123/129/4 125/134/4
f 117/123/5 122/128/5 128/130/5 123/129/5
f 120/125/6 119/124/6 125/134/6 126/133/6
f 122/128/7 118/127/7 124/131/7 128/130/7
f 118/127/8 121/126/8 127/132/8 124/131/8
