# Blender v3.6.17 OBJ File: '3d_med_straight_phantom.blend'
# www.blender.org
mtllib NeedleCollision.mtl
o NeedleCollision_/ambf/env/NeedleCollision_Cylinder.006
v -0.009305 0.002948 0.000317
v -0.009748 0.000434 0.000392
v -0.009386 0.000436 0.000400
v -0.008888 0.002832 0.000569
v -0.009205 0.000436 0.000103
v -0.008889 0.002844 0.000095
v -0.009386 0.000439 -0.000208
v -0.008887 0.002843 -0.000399
v -0.009746 0.000442 -0.000207
v -0.009294 0.002952 -0.000153
v -0.009925 0.000442 0.000106
v -0.009701 0.003064 0.000095
v -0.007934 0.005065 0.000580
v -0.008883 0.002831 0.000575
v -0.008887 0.002835 -0.000395
v -0.007937 0.005069 -0.000390
v -0.009697 0.003049 0.000094
v -0.008660 0.005493 0.000100
v -0.006418 0.006991 0.000588
v -0.007939 0.005059 0.000580
v -0.007943 0.005063 -0.000390
v -0.006414 0.007006 -0.000389
v -0.008665 0.005487 0.000099
v -0.007004 0.007595 0.000102
v -0.004467 0.008447 0.000583
v -0.006417 0.006990 0.000586
v -0.006412 0.007005 -0.000388
v -0.004467 0.008447 -0.000396
v -0.007000 0.007591 0.000100
v -0.004883 0.009174 0.000100
v -0.002218 0.009336 0.000579
v -0.004471 0.008445 0.000583
v -0.004473 0.008448 -0.000388
v -0.002220 0.009340 -0.000400
v -0.004874 0.009176 0.000098
v -0.002383 0.010153 0.000088
v 0.000195 0.009619 0.000568
v -0.002213 0.009340 0.000579
v -0.002219 0.009339 -0.000400
v 0.000186 0.009619 -0.000408
v -0.002415 0.010147 0.000090
v 0.000207 0.010456 0.000084
v 0.002576 0.009260 0.000560
v 0.000178 0.009618 0.000564
v 0.000166 0.009620 -0.000406
v 0.002576 0.009267 -0.000416
v 0.000190 0.010456 0.000083
v 0.002810 0.010069 0.000073
v 0.004799 0.008299 0.000547
v 0.002577 0.009263 0.000560
v 0.002575 0.009269 -0.000417
v 0.004798 0.008300 -0.000429
v 0.002798 0.010070 0.000072
v 0.005232 0.009024 0.000060
v 0.006633 0.006856 0.000056
v 0.004804 0.008300 0.000543
v 0.004800 0.008304 -0.000427
v 0.006633 0.006856 0.000036
v 0.005227 0.009026 0.000059
v 0.006401 0.008001 0.000050
vt 1.000000 0.500000
vt 1.000000 1.000000
vt 0.833333 1.000000
vt 0.833333 0.500000
vt 0.666667 1.000000
vt 0.666667 0.500000
vt 0.500000 1.000000
vt 0.500000 0.500000
vt 0.333333 1.000000
vt 0.333333 0.500000
vt 0.457846 0.370000
vt 0.250000 0.490000
vt 0.042154 0.370000
vt 0.042154 0.130000
vt 0.250000 0.010000
vt 0.457846 0.130000
vt 0.166667 1.000000
vt 0.166667 0.500000
vt -0.000000 1.000000
vt -0.000000 0.500000
vt 0.750000 0.490000
vt 0.957846 0.370000
vt 0.957846 0.130000
vt 0.750000 0.010000
vt 0.542154 0.130000
vt 0.542154 0.370000
vt 1.000000 0.500000
vt 1.000000 1.000000
vt 0.666667 1.000000
vt 0.666667 0.500000
vt 0.333333 1.000000
vt 0.333333 0.500000
vt 0.457846 0.130000
vt 0.250000 0.490000
vt 0.042154 0.130000
vt -0.000000 1.000000
vt -0.000000 0.500000
vt 0.750000 0.490000
vt 0.957846 0.130000
vt 0.542154 0.130000
vt 1.000000 0.500000
vt 1.000000 1.000000
vt 0.666667 1.000000
vt 0.666667 0.500000
vt 0.333333 1.000000
vt 0.333333 0.500000
vt 0.457846 0.130000
vt 0.250000 0.490000
vt 0.042154 0.130000
vt -0.000000 1.000000
vt -0.000000 0.500000
vt 0.750000 0.490000
vt 0.957846 0.130000
vt 0.542154 0.130000
vt 1.000000 0.500000
vt 1.000000 1.000000
vt 0.666667 1.000000
vt 0.666667 0.500000
vt 0.333333 1.000000
vt 0.333333 0.500000
vt 0.457846 0.130000
vt 0.250000 0.490000
vt 0.042154 0.130000
vt -0.000000 1.000000
vt -0.000000 0.500000
vt 0.750000 0.490000
vt 0.957846 0.130000
vt 0.542154 0.130000
vt 1.000000 0.500000
vt 1.000000 1.000000
vt 0.666667 1.000000
vt 0.666667 0.500000
vt 0.333333 1.000000
vt 0.333333 0.500000
vt 0.457846 0.130000
vt 0.250000 0.490000
vt 0.042154 0.130000
vt -0.000000 1.000000
vt -0.000000 0.500000
vt 0.750000 0.490000
vt 0.957846 0.130000
vt 0.542154 0.130000
vt 1.000000 0.500000
vt 1.000000 1.000000
vt 0.666667 1.000000
vt 0.666667 0.500000
vt 0.333333 1.000000
vt 0.333333 0.500000
vt 0.457846 0.130000
vt 0.250000 0.490000
vt 0.042154 0.130000
vt -0.000000 1.000000
vt -0.000000 0.500000
vt 0.750000 0.490000
vt 0.957846 0.130000
vt 0.542154 0.130000
vt 1.000000 0.500000
vt 1.000000 1.000000
vt 0.666667 1.000000
vt 0.666667 0.500000
vt 0.333333 1.000000
vt 0.333333 0.500000
vt 0.457846 0.130000
vt 0.250000 0.490000
vt 0.042154 0.130000
vt -0.000000 1.000000
vt -0.000000 0.500000
vt 0.750000 0.490000
vt 0.957846 0.130000
vt 0.542154 0.130000
vt 1.000000 0.500000
vt 1.000000 1.000000
vt 0.666667 1.000000
vt 0.666667 0.500000
vt 0.333333 1.000000
vt 0.333333 0.500000
vt 0.457846 0.130000
vt 0.250000 0.490000
vt 0.042154 0.130000
vt -0.000000 1.000000
vt -0.000000 0.500000
vt 0.750000 0.490000
vt 0.957846 0.130000
vt 0.542154 0.130000
vt 1.000000 0.500000
vt 1.000000 1.000000
vt 0.666667 1.000000
vt 0.666667 0.500000
vt 0.333333 1.000000
vt 0.333333 0.500000
vt 0.457846 0.130000
vt 0.250000 0.490000
vt 0.042154 0.130000
vt -0.000000 1.000000
vt -0.000000 0.500000
vt 0.750000 0.490000
vt 0.957846 0.130000
vt 0.542154 0.130000
vn -0.3106 0.0414 0.9496
vn 0.9606 -0.1700 0.2201
vn 0.9615 -0.1716 -0.2144
vn -0.3030 0.0322 -0.9524
vn -0.0055 -1.0000 -0.0083
vn -0.6783 0.0955 -0.7286
vn -0.6484 0.0967 0.7551
vn 0.2593 0.9657 0.0128
vn 0.9204 -0.3910 -0.0052
vn -0.4668 0.2002 -0.8614
vn -0.2578 -0.9662 -0.0028
vn -0.4600 0.1933 0.8666
vn 0.5066 0.8622 0.0014
vn 0.7859 -0.6184 -0.0060
vn -0.3997 0.3154 -0.8607
vn -0.5066 -0.8622 -0.0014
vn -0.3950 0.3089 0.8652
vn 0.7126 0.7014 0.0137
vn 0.5969 -0.8023 -0.0050
vn -0.3067 0.4095 -0.8592
vn -0.7118 -0.7022 -0.0147
vn -0.3011 0.4040 0.8638
vn 0.8681 0.4965 -0.0001
vn 0.3679 -0.9299 -0.0035
vn -0.1904 0.4736 -0.8599
vn -0.8759 -0.4824 0.0004
vn -0.1844 0.4747 0.8606
vn 0.9804 0.1971 -0.0012
vn 0.1154 -0.9933 -0.0008
vn -0.0615 0.5070 -0.8598
vn -0.9709 -0.2393 0.0053
vn -0.0562 0.5037 0.8621
vn 0.9998 -0.0192 -0.0084
vn -0.1462 -0.9892 -0.0037
vn 0.0705 0.5035 -0.8611
vn -0.9997 0.0220 0.0124
vn 0.0761 0.4969 0.8645
vn 0.9605 -0.2784 -0.0017
vn -0.3990 -0.9170 -0.0032
vn 0.1978 0.4678 -0.8614
vn -0.9639 0.2663 0.0035
vn 0.2042 0.4620 0.8631
vn 0.8579 -0.5138 -0.0014
vn -0.6197 -0.7848 -0.0007
vn 0.3162 0.2147 -0.9241
vn -0.8622 0.5066 0.0054
vn 0.3235 0.2080 0.9231
vn 0.9802 0.1981 -0.0030
usemtl Material.040
s 1
f 1/1/1 2/2/1 3/3/1 4/4/1
f 4/4/2 3/3/2 5/5/2 6/6/2
f 6/6/3 5/5/3 7/7/3 8/8/3
f 8/8/4 7/7/4 9/9/4 10/10/4
f 3/11/5 2/12/5 11/13/5 9/14/5 7/15/5 5/16/5
f 10/10/6 9/9/6 11/17/6 12/18/6
f 12/18/7 11/17/7 2/19/7 1/20/7
f 1/21/8 4/22/8 6/23/8 8/24/8 10/25/8 12/26/8
usemtl Material.041
f 13/27/9 14/28/9 15/29/9 16/30/9
f 16/30/10 15/29/10 17/31/10 18/32/10
f 15/33/11 14/34/11 17/35/11
f 18/32/12 17/31/12 14/36/12 13/37/12
f 13/38/13 16/39/13 18/40/13
usemtl Material.042
f 19/41/14 20/42/14 21/43/14 22/44/14
f 22/44/15 21/43/15 23/45/15 24/46/15
f 21/47/16 20/48/16 23/49/16
f 24/46/17 23/45/17 20/50/17 19/51/17
f 19/52/18 22/53/18 24/54/18
usemtl Material.043
f 25/55/19 26/56/19 27/57/19 28/58/19
f 28/58/20 27/57/20 29/59/20 30/60/20
f 27/61/21 26/62/21 29/63/21
f 30/60/22 29/59/22 26/64/22 25/65/22
f 25/66/23 28/67/23 30/68/23
usemtl Material.044
f 31/69/24 32/70/24 33/71/24 34/72/24
f 34/72/25 33/71/25 35/73/25 36/74/25
f 33/75/26 32/76/26 35/77/26
f 36/74/27 35/73/27 32/78/27 31/79/27
f 31/80/28 34/81/28 36/82/28
usemtl Material.045
f 37/83/29 38/84/29 39/85/29 40/86/29
f 40/86/30 39/85/30 41/87/30 42/88/30
f 39/89/31 38/90/31 41/91/31
f 42/88/32 41/87/32 38/92/32 37/93/32
f 37/94/33 40/95/33 42/96/33
usemtl Material.046
f 43/97/34 44/98/34 45/99/34 46/100/34
f 46/100/35 45/99/35 47/101/35 48/102/35
f 45/103/36 44/104/36 47/105/36
f 48/102/37 47/101/37 44/106/37 43/107/37
f 43/108/38 46/109/38 48/110/38
usemtl Material.047
f 49/111/39 50/112/39 51/113/39 52/114/39
f 52/114/40 51/113/40 53/115/40 54/116/40
f 51/117/41 50/118/41 53/119/41
f 54/116/42 53/115/42 50/120/42 49/121/42
f 49/122/43 52/123/43 54/124/43
usemtl Material.048
f 55/125/44 56/126/44 57/127/44 58/128/44
f 58/128/45 57/127/45 59/129/45 60/130/45
f 57/131/46 56/132/46 59/133/46
f 60/130/47 59/129/47 56/134/47 55/135/47
f 55/136/48 58/137/48 60/138/48
