# Blender v3.6.17 OBJ File: '3d_med_straight_phantom.blend'
# www.blender.org
mtllib phantom_collision_single.mtl
o phantom_collision_single_Plane.045
v -0.097553 -0.104256 -0.005288
v 0.104256 -0.097553 -0.005288
v -0.104256 0.097553 -0.005288
v 0.097553 0.104256 -0.005288
v -0.097553 -0.104256 -0.000043
v 0.104256 -0.097553 -0.000043
v -0.104256 0.097553 -0.000043
v 0.097553 0.104256 -0.000043
v 0.069688 0.019075 -0.000451
v 0.069688 0.019075 0.006409
v 0.068939 0.028566 -0.000451
v 0.068939 0.028566 0.006409
v 0.061475 0.018427 -0.000451
v 0.061475 0.018427 0.006409
v 0.060726 0.027918 -0.000451
v 0.060726 0.027918 0.006409
v 0.056420 0.017378 -0.000451
v 0.056420 0.017378 0.006409
v 0.055671 0.026869 -0.000451
v 0.055671 0.026869 0.006409
v 0.048207 0.016730 -0.000451
v 0.048207 0.016730 0.006409
v 0.047458 0.026221 -0.000451
v 0.047458 0.026221 0.006409
v 0.042564 0.016413 0.000026
v 0.042564 0.016413 0.005931
v 0.042027 0.025918 0.000026
v 0.042027 0.025918 0.005931
v 0.034338 0.015949 0.000026
v 0.034338 0.015949 0.005931
v 0.033802 0.025454 0.000026
v 0.033802 0.025454 0.005931
v 0.027552 0.015462 0.000177
v 0.027552 0.015462 0.005288
v 0.027065 0.025323 0.000177
v 0.027065 0.025323 0.005288
v 0.019323 0.015056 0.000177
v 0.019323 0.015056 0.005288
v 0.018836 0.024917 0.000177
v 0.018836 0.024917 0.005288
v 0.015288 0.014683 0.000608
v 0.015288 0.014683 0.005350
v 0.014765 0.024891 0.000608
v 0.014765 0.024891 0.005350
v 0.007756 0.014296 0.000608
v 0.007756 0.014296 0.005350
v 0.007233 0.024504 0.000608
v 0.007233 0.024504 0.005350
v -0.030848 -0.003873 -0.001979
v -0.030848 -0.003873 0.004552
v -0.072492 0.037055 -0.001979
v -0.072492 0.037055 0.004552
v -0.025114 0.001961 -0.001979
v -0.025114 0.001961 0.004552
v -0.066759 0.042889 -0.001979
v -0.066759 0.042889 0.004552
v -0.017757 0.009420 -0.001979
v -0.017757 0.009420 0.004552
v -0.059558 0.050189 -0.001979
v -0.059558 0.050189 0.004552
v -0.012046 0.015276 -0.001979
v -0.012046 0.015276 0.004552
v -0.053847 0.056044 -0.001979
v -0.053847 0.056044 0.004552
v -0.004277 0.023162 -0.001979
v -0.004277 0.023162 0.004552
v -0.045922 0.064091 -0.001979
v -0.045922 0.064091 0.004552
v 0.001456 0.028996 -0.001979
v 0.001456 0.028996 0.004552
v -0.040188 0.069925 -0.001979
v -0.040188 0.069925 0.004552
v -0.017293 -0.067346 -0.001979
v -0.017293 -0.067346 0.004552
v -0.018560 -0.011000 -0.001979
v -0.018560 -0.011000 0.004552
v -0.009115 -0.067163 -0.001979
v -0.009115 -0.067163 0.004552
v -0.010382 -0.010816 -0.001979
v -0.010382 -0.010816 0.004552
v -0.033002 -0.067925 -0.001979
v -0.033002 -0.067925 0.004552
v -0.034279 -0.011128 -0.001979
v -0.034279 -0.011128 0.004552
v -0.024824 -0.067741 -0.001979
v -0.024824 -0.067741 0.004552
v -0.026101 -0.010944 -0.001979
v -0.026101 -0.010944 0.004552
v -0.049432 -0.068547 -0.001979
v -0.049432 -0.068547 0.004552
v -0.050721 -0.011246 -0.001979
v -0.050721 -0.011246 0.004552
v -0.041254 -0.068363 -0.001979
v -0.041254 -0.068363 0.004552
v -0.042543 -0.011062 -0.001979
v -0.042543 -0.011062 0.004552
v -0.002603 -0.035997 -0.001979
v -0.002603 -0.035997 0.004552
v 0.036720 0.005701 -0.001979
v 0.036720 0.005701 0.004552
v 0.003348 -0.041609 -0.001979
v 0.003348 -0.041609 0.004552
v 0.042671 0.000089 -0.001979
v 0.042671 0.000089 0.004552
v 0.009894 -0.049821 -0.001979
v 0.009894 -0.049821 0.004552
v 0.048871 -0.008490 -0.001979
v 0.048871 -0.008490 0.004552
v 0.015845 -0.055433 -0.001979
v 0.015845 -0.055433 0.004552
v 0.054822 -0.014102 -0.001979
v 0.054822 -0.014102 0.004552
v 0.023343 -0.062194 -0.001979
v 0.023343 -0.062194 0.004552
v 0.062011 -0.021191 -0.001979
v 0.062011 -0.021191 0.004552
v 0.029294 -0.067806 -0.001979
v 0.029294 -0.067806 0.004552
v 0.067962 -0.026803 -0.001979
v 0.067962 -0.026803 0.004552
v 0.066065 0.035618 -0.000374
v 0.066065 0.035618 0.004913
v 0.008126 0.033239 -0.000374
v 0.008126 0.033239 0.004913
v 0.065696 0.044596 -0.000374
v 0.065696 0.044596 0.004913
v 0.007758 0.042217 -0.000374
v 0.007758 0.042217 0.004913
v 0.065308 0.054058 -0.000374
v 0.065308 0.054058 0.004913
v 0.007369 0.051680 -0.000374
v 0.007369 0.051680 0.004913
v 0.064939 0.063036 -0.000374
v 0.064939 0.063036 0.004913
v 0.007001 0.060658 -0.000374
v 0.007001 0.060658 0.004913
vt 0.000000 0.000000
vt 0.000000 1.000000
vt 1.000000 1.000000
vt 1.000000 0.000000
vt 0.000000 0.000000
vt 1.000000 0.000000
vt 1.000000 1.000000
vt 0.000000 1.000000
vt 0.000000 0.000000
vt 0.000000 1.000000
vt 1.000000 1.000000
vt 1.000000 0.000000
vt 0.000000 0.000000
vt 1.000000 0.000000
vt 1.000000 1.000000
vt 0.000000 1.000000
vt 0.000000 0.000000
vt 0.000000 1.000000
vt 1.000000 1.000000
vt 1.000000 0.000000
vt 0.000000 0.000000
vt 1.000000 0.000000
vt 1.000000 1.000000
vt 0.000000 1.000000
vt 0.000000 0.000000
vt 0.000000 1.000000
vt 1.000000 1.000000
vt 1.000000 0.000000
vt 0.000000 0.000000
vt 1.000000 0.000000
vt 1.000000 1.000000
vt 0.000000 1.000000
vt 0.000000 0.000000
vt 0.000000 1.000000
vt 1.000000 1.000000
vt 1.000000 0.000000
vt 0.000000 0.000000
vt 1.000000 0.000000
vt 1.000000 1.000000
vt 0.000000 1.000000
vt 0.000000 0.000000
vt 0.000000 1.000000
vt 1.000000 1.000000
vt 1.000000 0.000000
vt 0.000000 0.000000
vt 1.000000 0.000000
vt 1.000000 1.000000
vt 0.000000 1.000000
vt 0.375000 0.000000
vt 0.625000 0.000000
vt 0.625000 0.250000
vt 0.375000 0.250000
vt 0.625000 0.500000
vt 0.375000 0.500000
vt 0.625000 0.750000
vt 0.375000 0.750000
vt 0.625000 1.000000
vt 0.375000 1.000000
vt 0.125000 0.500000
vt 0.125000 0.750000
vt 0.875000 0.500000
vt 0.875000 0.750000
vt 0.375000 0.000000
vt 0.625000 0.000000
vt 0.625000 0.250000
vt 0.375000 0.250000
vt 0.625000 0.500000
vt 0.375000 0.500000
vt 0.625000 0.750000
vt 0.375000 0.750000
vt 0.625000 1.000000
vt 0.375000 1.000000
vt 0.125000 0.500000
vt 0.125000 0.750000
vt 0.875000 0.500000
vt 0.875000 0.750000
vt 0.375000 0.000000
vt 0.625000 0.000000
vt 0.625000 0.250000
vt 0.375000 0.250000
vt 0.625000 0.500000
vt 0.375000 0.500000
vt 0.625000 0.750000
vt 0.375000 0.750000
vt 0.625000 1.000000
vt 0.375000 1.000000
vt 0.125000 0.500000
vt 0.125000 0.750000
vt 0.875000 0.500000
vt 0.875000 0.750000
vt 0.375000 0.000000
vt 0.625000 0.000000
vt 0.625000 0.250000
vt 0.375000 0.250000
vt 0.625000 0.500000
vt 0.375000 0.500000
vt 0.625000 0.750000
vt 0.375000 0.750000
vt 0.625000 1.000000
vt 0.375000 1.000000
vt 0.125000 0.500000
vt 0.125000 0.750000
vt 0.875000 0.500000
vt 0.875000 0.750000
vt 0.375000 0.000000
vt 0.625000 0.000000
vt 0.625000 0.250000
vt 0.375000 0.250000
vt 0.625000 0.500000
vt 0.375000 0.500000
vt 0.625000 0.750000
vt 0.375000 0.750000
vt 0.625000 1.000000
vt 0.375000 1.000000
vt 0.125000 0.500000
vt 0.125000 0.750000
vt 0.875000 0.500000
vt 0.875000 0.750000
vt 0.375000 0.000000
vt 0.625000 0.000000
vt 0.625000 0.250000
vt 0.375000 0.250000
vt 0.625000 0.500000
vt 0.375000 0.500000
vt 0.625000 0.750000
vt 0.375000 0.750000
vt 0.625000 1.000000
vt 0.375000 1.000000
vt 0.125000 0.500000
vt 0.125000 0.750000
vt 0.875000 0.500000
vt 0.875000 0.750000
vt 0.375000 0.000000
vt 0.625000 0.000000
vt 0.625000 0.250000
vt 0.375000 0.250000
vt 0.625000 0.500000
vt 0.375000 0.500000
vt 0.625000 0.750000
vt 0.375000 0.750000
vt 0.625000 1.000000
vt 0.375000 1.000000
vt 0.125000 0.500000
vt 0.125000 0.750000
vt 0.875000 0.500000
vt 0.875000 0.750000
vt 0.375000 0.000000
vt 0.625000 0.000000
vt 0.625000 0.250000
vt 0.375000 0.250000
vt 0.625000 0.500000
vt 0.375000 0.500000
vt 0.625000 0.750000
vt 0.375000 0.750000
vt 0.625000 1.000000
vt 0.375000 1.000000
vt 0.125000 0.500000
vt 0.125000 0.750000
vt 0.875000 0.500000
vt 0.875000 0.750000
vt 0.375000 0.000000
vt 0.625000 0.000000
vt 0.625000 0.250000
vt 0.375000 0.250000
vt 0.625000 0.500000
vt 0.375000 0.500000
vt 0.625000 0.750000
vt 0.375000 0.750000
vt 0.625000 1.000000
vt 0.375000 1.000000
vt 0.125000 0.500000
vt 0.125000 0.750000
vt 0.875000 0.500000
vt 0.875000 0.750000
vt 0.375000 0.000000
vt 0.625000 0.000000
vt 0.625000 0.250000
vt 0.375000 0.250000
vt 0.625000 0.500000
vt 0.375000 0.500000
vt 0.625000 0.750000
vt 0.375000 0.750000
vt 0.625000 1.000000
vt 0.375000 1.000000
vt 0.125000 0.500000
vt 0.125000 0.750000
vt 0.875000 0.500000
vt 0.875000 0.750000
vt 0.375000 0.000000
vt 0.625000 0.000000
vt 0.625000 0.250000
vt 0.375000 0.250000
vt 0.625000 0.500000
vt 0.375000 0.500000
vt 0.625000 0.750000
vt 0.375000 0.750000
vt 0.625000 1.000000
vt 0.375000 1.000000
vt 0.125000 0.500000
vt 0.125000 0.750000
vt 0.875000 0.500000
vt 0.875000 0.750000
vn 0.0000 0.0000 -1.0000
vn -0.0000 0.0000 1.0000
vn 0.9969 0.0786 0.0000
vn -0.9969 -0.0786 0.0000
vn -0.0786 0.9969 0.0000
vn 0.0786 -0.9969 0.0000
vn 0.9984 0.0563 0.0000
vn -0.9984 -0.0563 0.0000
vn -0.0563 0.9984 0.0000
vn 0.0563 -0.9984 0.0000
vn 0.9988 0.0493 -0.0000
vn -0.9988 -0.0493 0.0000
vn -0.0493 0.9988 0.0000
vn 0.0493 -0.9988 0.0000
vn 0.9987 0.0512 0.0000
vn -0.9987 -0.0512 0.0000
vn -0.0512 0.9987 0.0000
vn 0.0512 -0.9987 0.0000
vn -0.7010 -0.7132 0.0000
vn -0.7132 0.7010 0.0000
vn 0.7010 0.7132 0.0000
vn 0.7132 -0.7010 0.0000
vn -0.6982 -0.7159 0.0000
vn -0.7159 0.6982 0.0000
vn 0.6982 0.7159 0.0000
vn 0.7159 -0.6982 0.0000
vn -0.9997 -0.0225 0.0000
vn -0.0225 0.9997 0.0000
vn 0.9997 0.0225 0.0000
vn 0.0225 -0.9997 0.0000
vn -0.7275 0.6861 0.0000
vn 0.6861 0.7275 0.0000
vn 0.7275 -0.6861 0.0000
vn -0.6861 -0.7275 0.0000
vn 0.0410 -0.9992 0.0000
vn -0.9992 -0.0410 0.0000
vn -0.0410 0.9992 0.0000
vn 0.9992 0.0410 0.0000
usemtl Material.057
s off
f 1/1/1 3/2/1 4/3/1 2/4/1
f 5/5/2 6/6/2 8/7/2 7/8/2
usemtl Material.037
f 9/9/3 11/10/3 12/11/3 10/12/3
f 13/13/4 14/14/4 16/15/4 15/16/4
f 10/12/2 12/11/2 16/15/2 14/14/2
f 11/10/1 9/9/1 13/13/1 15/16/1
f 12/11/5 11/10/5 15/16/5 16/15/5
f 9/9/6 10/12/6 14/14/6 13/13/6
usemtl Material.036
f 17/17/3 19/18/3 20/19/3 18/20/3
f 21/21/4 22/22/4 24/23/4 23/24/4
f 18/20/2 20/19/2 24/23/2 22/22/2
f 19/18/1 17/17/1 21/21/1 23/24/1
f 20/19/5 19/18/5 23/24/5 24/23/5
f 17/17/6 18/20/6 22/22/6 21/21/6
usemtl Material.035
f 25/25/7 27/26/7 28/27/7 26/28/7
f 29/29/8 30/30/8 32/31/8 31/32/8
f 26/28/2 28/27/2 32/31/2 30/30/2
f 27/26/1 25/25/1 29/29/1 31/32/1
f 28/27/9 27/26/9 31/32/9 32/31/9
f 25/25/10 26/28/10 30/30/10 29/29/10
usemtl Material.034
f 33/33/11 35/34/11 36/35/11 34/36/11
f 37/37/12 38/38/12 40/39/12 39/40/12
f 34/36/2 36/35/2 40/39/2 38/38/2
f 35/34/1 33/33/1 37/37/1 39/40/1
f 36/35/13 35/34/13 39/40/13 40/39/13
f 33/33/14 34/36/14 38/38/14 37/37/14
usemtl Material.033
f 41/41/15 43/42/15 44/43/15 42/44/15
f 45/45/16 46/46/16 48/47/16 47/48/16
f 42/44/2 44/43/2 48/47/2 46/46/2
f 43/42/1 41/41/1 45/45/1 47/48/1
f 44/43/17 43/42/17 47/48/17 48/47/17
f 41/41/18 42/44/18 46/46/18 45/45/18
usemtl Material.032
f 49/49/19 50/50/19 52/51/19 51/52/19
f 51/52/20 52/51/20 56/53/20 55/54/20
f 55/54/21 56/53/21 54/55/21 53/56/21
f 53/56/22 54/55/22 50/57/22 49/58/22
f 51/59/1 55/54/1 53/56/1 49/60/1
f 56/53/2 52/61/2 50/62/2 54/55/2
usemtl Material.058
f 57/63/23 58/64/23 60/65/23 59/66/23
f 59/66/24 60/65/24 64/67/24 63/68/24
f 63/68/25 64/67/25 62/69/25 61/70/25
f 61/70/26 62/69/26 58/71/26 57/72/26
f 59/73/1 63/68/1 61/70/1 57/74/1
f 64/67/2 60/75/2 58/76/2 62/69/2
usemtl Material.059
f 65/77/19 66/78/19 68/79/19 67/80/19
f 67/80/20 68/79/20 72/81/20 71/82/20
f 71/82/21 72/81/21 70/83/21 69/84/21
f 69/84/22 70/83/22 66/85/22 65/86/22
f 67/87/1 71/82/1 69/84/1 65/88/1
f 72/81/2 68/89/2 66/90/2 70/83/2
usemtl Material.060
f 73/91/27 74/92/27 76/93/27 75/94/27
f 75/94/28 76/93/28 80/95/28 79/96/28
f 79/96/29 80/95/29 78/97/29 77/98/29
f 77/98/30 78/97/30 74/99/30 73/100/30
f 75/101/1 79/96/1 77/98/1 73/102/1
f 80/95/2 76/103/2 74/104/2 78/97/2
usemtl Material.061
f 81/105/27 82/106/27 84/107/27 83/108/27
f 83/108/28 84/107/28 88/109/28 87/110/28
f 87/110/29 88/109/29 86/111/29 85/112/29
f 85/112/30 86/111/30 82/113/30 81/114/30
f 83/115/1 87/110/1 85/112/1 81/116/1
f 88/109/2 84/117/2 82/118/2 86/111/2
usemtl Material.062
f 89/119/27 90/120/27 92/121/27 91/122/27
f 91/122/28 92/121/28 96/123/28 95/124/28
f 95/124/29 96/123/29 94/125/29 93/126/29
f 93/126/30 94/125/30 90/127/30 89/128/30
f 91/129/1 95/124/1 93/126/1 89/130/1
f 96/123/2 92/131/2 90/132/2 94/125/2
usemtl Material.063
f 97/133/31 98/134/31 100/135/31 99/136/31
f 99/136/32 100/135/32 104/137/32 103/138/32
f 103/138/33 104/137/33 102/139/33 101/140/33
f 101/140/34 102/139/34 98/141/34 97/142/34
f 99/143/1 103/138/1 101/140/1 97/144/1
f 104/137/2 100/145/2 98/146/2 102/139/2
usemtl Material.064
f 105/147/31 106/148/31 108/149/31 107/150/31
f 107/150/32 108/149/32 112/151/32 111/152/32
f 111/152/33 112/151/33 110/153/33 109/154/33
f 109/154/34 110/153/34 106/155/34 105/156/34
f 107/157/1 111/152/1 109/154/1 105/158/1
f 112/151/2 108/159/2 106/160/2 110/153/2
usemtl Material.065
f 113/161/31 114/162/31 116/163/31 115/164/31
f 115/164/32 116/163/32 120/165/32 119/166/32
f 119/166/33 120/165/33 118/167/33 117/168/33
f 117/168/34 118/167/34 114/169/34 113/170/34
f 115/171/1 119/166/1 117/168/1 113/172/1
f 120/165/2 116/173/2 114/174/2 118/167/2
usemtl Material.016
f 121/175/35 122/176/35 124/177/35 123/178/35
f 123/178/36 124/177/36 128/179/36 127/180/36
f 127/180/37 128/179/37 126/181/37 125/182/37
f 125/182/38 126/181/38 122/183/38 121/184/38
f 123/185/1 127/180/1 125/182/1 121/186/1
f 128/179/2 124/187/2 122/188/2 126/181/2
usemtl Material.017
f 129/189/35 130/190/35 132/191/35 131/192/35
f 131/192/36 132/191/36 136/193/36 135/194/36
f 135/194/37 136/193/37 134/195/37 133/196/37
f 133/196/38 134/195/38 130/197/38 129/198/38
f 131/199/1 135/194/1 133/196/1 129/200/1
f 136/193/2 132/201/2 130/202/2 134/195/2
