# Blender v2.83.5 OBJ File: 'env.blend'
# www.blender.org
mtllib Phantom.mtl
o Phantom_Cube.004
v -0.487118 -1.058579 -0.166453
v -0.487118 -1.058579 0.166453
v -0.487118 1.058579 -0.166453
v -0.487118 1.058579 0.166453
v 0.487118 -1.058579 -0.166453
v 0.487118 -1.058579 0.166453
v 0.487118 1.058579 -0.166453
v 0.487118 1.058579 0.166453
vt 0.248762 0.681465
vt 0.001238 0.681465
vt 0.001238 0.003390
vt 0.248762 0.003390
vt 0.248762 0.998440
vt 0.001238 0.998440
vt 0.001238 0.686416
vt 0.248762 0.686416
vt 0.498762 0.681465
vt 0.251238 0.681465
vt 0.251238 0.003390
vt 0.498762 0.003390
vt 0.251238 0.998440
vt 0.251238 0.686416
vt 0.498762 0.686416
vt 0.498762 0.998440
vt 0.501238 0.003390
vt 0.748762 0.003390
vt 0.748762 0.681465
vt 0.501238 0.681465
vt 0.998762 0.681465
vt 0.751238 0.681465
vt 0.751238 0.003390
vt 0.998762 0.003390
vn -1.0000 0.0000 0.0000
vn 0.0000 1.0000 0.0000
vn 1.0000 0.0000 0.0000
vn 0.0000 -1.0000 0.0000
vn 0.0000 0.0000 -1.0000
vn 0.0000 0.0000 1.0000
usemtl Material.001
s off
f 1/1/1 2/2/1 4/3/1 3/4/1
f 3/5/2 4/6/2 8/7/2 7/8/2
f 7/9/3 8/10/3 6/11/3 5/12/3
f 5/13/4 6/14/4 2/15/4 1/16/4
f 3/17/5 7/18/5 5/19/5 1/20/5
f 8/21/6 4/22/6 2/23/6 6/24/6
