# Blender v2.83.0 OBJ File: 'psm2.blend'
# www.blender.org
mtllib tool yaw link.mtl
o tool_yaw_link_Tool_Yaw_Link
v -0.000001 0.019062 -0.019059
v -0.000001 0.019058 0.019062
v 0.003718 0.018691 0.019062
v 0.003718 0.018696 -0.019059
v 0.007294 0.017607 0.019061
v 0.007294 0.017611 -0.019060
v 0.010589 0.015845 0.019061
v 0.010589 0.015850 -0.019060
v 0.013477 0.013475 0.019061
v 0.013477 0.013479 -0.019060
v 0.015848 0.010586 0.019061
v 0.015848 0.010591 -0.019060
v 0.017609 0.007291 0.019060
v 0.017609 0.007296 -0.019061
v 0.018694 0.003716 0.019060
v 0.018694 0.003720 -0.019061
v 0.019060 -0.000003 0.019059
v 0.019060 0.000002 -0.019062
v 0.018694 -0.003721 0.019059
v 0.018694 -0.003717 -0.019062
v 0.017609 -0.007297 0.019058
v 0.017609 -0.007293 -0.019063
v 0.015848 -0.010592 0.019058
v 0.015848 -0.010588 -0.019063
v 0.013477 -0.013481 0.019058
v 0.013477 -0.013476 -0.019063
v 0.010589 -0.015851 0.019057
v 0.010589 -0.015847 -0.019064
v 0.007294 -0.017613 0.019057
v 0.007294 -0.017608 -0.019064
v 0.003718 -0.018697 0.019057
v 0.003718 -0.018693 -0.019064
v -0.000001 -0.019063 0.019057
v -0.000001 -0.019059 -0.019064
v -0.003719 -0.018697 0.019057
v -0.003719 -0.018693 -0.019064
v -0.007295 -0.017613 0.019057
v -0.007295 -0.017608 -0.019064
v -0.010590 -0.015851 0.019057
v -0.010590 -0.015847 -0.019064
v -0.013478 -0.013481 0.019058
v -0.013478 -0.013476 -0.019063
v -0.015849 -0.010592 0.019058
v -0.015849 -0.010588 -0.019063
v -0.017610 -0.007297 0.019058
v -0.017610 -0.007293 -0.019063
v -0.018695 -0.003721 0.019059
v -0.018695 -0.003717 -0.019062
v -0.019061 -0.000003 0.019059
v -0.019061 0.000002 -0.019062
v -0.018695 0.003716 0.019060
v -0.018695 0.003720 -0.019061
v -0.017610 0.007291 0.019060
v -0.017610 0.007296 -0.019061
v -0.015849 0.010587 0.019061
v -0.015849 0.010591 -0.019060
v -0.013478 0.013475 0.019061
v -0.013478 0.013479 -0.019060
v -0.010590 0.015845 0.019061
v -0.010590 0.015850 -0.019060
v -0.007295 0.017607 0.019061
v -0.007295 0.017611 -0.019060
v -0.003719 0.018691 0.019062
v -0.003719 0.018696 -0.019059
vn 0.0980 0.9952 0.0001
vn 0.2903 0.9569 0.0001
vn 0.4714 0.8819 0.0001
vn 0.6344 0.7730 0.0001
vn 0.7730 0.6344 0.0001
vn 0.8819 0.4714 0.0001
vn 0.9569 0.2903 0.0000
vn 0.9952 0.0980 0.0000
vn 0.9952 -0.0980 -0.0000
vn 0.9569 -0.2903 -0.0000
vn 0.8819 -0.4714 -0.0001
vn 0.7730 -0.6344 -0.0001
vn 0.6344 -0.7730 -0.0001
vn 0.4714 -0.8819 -0.0001
vn 0.2903 -0.9569 -0.0001
vn 0.0980 -0.9952 -0.0001
vn -0.0980 -0.9952 -0.0001
vn -0.2903 -0.9569 -0.0001
vn -0.4714 -0.8819 -0.0001
vn -0.6344 -0.7730 -0.0001
vn -0.7730 -0.6344 -0.0001
vn -0.8819 -0.4714 -0.0001
vn -0.9569 -0.2903 -0.0000
vn -0.9952 -0.0980 -0.0000
vn -0.9952 0.0980 0.0000
vn -0.9569 0.2903 0.0000
vn -0.8819 0.4714 0.0001
vn -0.7730 0.6344 0.0001
vn -0.6344 0.7730 0.0001
vn -0.4714 0.8819 0.0001
vn -0.0000 -0.0001 1.0000
vn -0.2903 0.9569 0.0001
vn -0.0980 0.9952 0.0001
vn 0.0000 0.0001 -1.0000
usemtl None
s off
f 1//1 2//1 3//1
f 1//1 3//1 4//1
f 4//2 3//2 5//2
f 4//2 5//2 6//2
f 6//3 5//3 7//3
f 6//3 7//3 8//3
f 8//4 7//4 9//4
f 8//4 9//4 10//4
f 10//5 9//5 11//5
f 10//5 11//5 12//5
f 12//6 11//6 13//6
f 12//6 13//6 14//6
f 14//7 13//7 15//7
f 14//7 15//7 16//7
f 16//8 15//8 17//8
f 16//8 17//8 18//8
f 18//9 17//9 19//9
f 18//9 19//9 20//9
f 20//10 19//10 21//10
f 20//10 21//10 22//10
f 22//11 21//11 23//11
f 22//11 23//11 24//11
f 24//12 23//12 25//12
f 24//12 25//12 26//12
f 26//13 25//13 27//13
f 26//13 27//13 28//13
f 28//14 27//14 29//14
f 28//14 29//14 30//14
f 30//15 29//15 31//15
f 30//15 31//15 32//15
f 32//16 31//16 33//16
f 32//16 33//16 34//16
f 34//17 33//17 35//17
f 34//17 35//17 36//17
f 36//18 35//18 37//18
f 36//18 37//18 38//18
f 38//19 37//19 39//19
f 38//19 39//19 40//19
f 40//20 39//20 41//20
f 40//20 41//20 42//20
f 42//21 41//21 43//21
f 42//21 43//21 44//21
f 44//22 43//22 45//22
f 44//22 45//22 46//22
f 46//23 45//23 47//23
f 46//23 47//23 48//23
f 48//24 47//24 49//24
f 48//24 49//24 50//24
f 50//25 49//25 51//25
f 50//25 51//25 52//25
f 52//26 51//26 53//26
f 52//26 53//26 54//26
f 54//27 53//27 55//27
f 54//27 55//27 56//27
f 56//28 55//28 57//28
f 56//28 57//28 58//28
f 58//29 57//29 59//29
f 58//29 59//29 60//29
f 60//30 59//30 61//30
f 60//30 61//30 62//30
f 5//31 3//31 2//31
f 2//31 63//31 61//31
f 61//31 59//31 57//31
f 57//31 55//31 53//31
f 53//31 51//31 49//31
f 49//31 47//31 45//31
f 45//31 43//31 41//31
f 41//31 39//31 37//31
f 37//31 35//31 33//31
f 33//31 31//31 29//31
f 29//31 27//31 25//31
f 25//31 23//31 21//31
f 21//31 19//31 17//31
f 17//31 15//31 13//31
f 13//31 11//31 9//31
f 9//31 7//31 5//31
f 5//31 2//31 61//31
f 61//31 57//31 53//31
f 53//31 49//31 45//31
f 45//31 41//31 37//31
f 37//31 33//31 29//31
f 29//31 25//31 21//31
f 21//31 17//31 13//31
f 13//31 9//31 5//31
f 5//31 61//31 53//31
f 53//31 45//31 37//31
f 37//31 29//31 21//31
f 21//31 13//31 5//31
f 5//31 53//31 37//31
f 37//31 21//31 5//31
f 62//32 61//32 63//32
f 62//32 63//32 64//32
f 64//33 63//33 2//33
f 64//33 2//33 1//33
f 64//34 1//34 4//34
f 4//34 6//34 8//34
f 8//34 10//34 12//34
f 12//34 14//34 16//34
f 16//34 18//34 20//34
f 20//34 22//34 24//34
f 24//34 26//34 28//34
f 28//34 30//34 32//34
f 32//34 34//34 36//34
f 36//34 38//34 40//34
f 40//34 42//34 44//34
f 44//34 46//34 48//34
f 48//34 50//34 52//34
f 52//34 54//34 56//34
f 56//34 58//34 60//34
f 60//34 62//34 64//34
f 64//34 4//34 8//34
f 8//34 12//34 16//34
f 16//34 20//34 24//34
f 24//34 28//34 32//34
f 32//34 36//34 40//34
f 40//34 44//34 48//34
f 48//34 52//34 56//34
f 56//34 60//34 64//34
f 64//34 8//34 16//34
f 16//34 24//34 32//34
f 32//34 40//34 48//34
f 48//34 56//34 64//34
f 64//34 16//34 32//34
f 32//34 48//34 64//34
