# Blender v3.3.8 OBJ File: 'full_scene_new_instruments_13.blend'
# www.blender.org
mtllib NeedleCollision.mtl
o NeedleCollision_/ambf/env/NeedleCollision_008_Needle_Cylinder.019
v 0.003425 0.010599 -0.000051
v 0.006193 0.009124 -0.000000
v 0.003428 0.010607 0.000075
v 0.006212 0.009149 0.000098
v 0.003456 0.010677 0.000198
v 0.006287 0.009244 0.000161
v 0.003519 0.010838 0.000262
v 0.003582 0.011000 0.000197
v 0.006374 0.009354 0.000090
v 0.003614 0.011082 0.000022
v 0.006378 0.009359 -0.000082
v 0.003602 0.011050 -0.000122
v 0.003573 0.010977 -0.000213
v 0.006287 0.009244 -0.000161
v 0.003519 0.010838 -0.000262
v 0.003456 0.010677 -0.000198
v 0.006212 0.009149 -0.000098
v -0.011662 -0.000619 -0.000108
v -0.011470 -0.000596 -0.000357
v -0.010875 -0.000526 -0.000108
v -0.011109 -0.000554 -0.000386
v -0.010786 0.002552 -0.000121
v -0.011306 0.002645 -0.000388
v -0.011533 0.002686 -0.000183
v -0.011551 0.002689 0.000150
v -0.011640 -0.000616 0.000155
v -0.011470 -0.000596 0.000357
v -0.011109 -0.000554 0.000386
v -0.011306 0.002645 0.000388
v -0.010801 0.002555 0.000153
v -0.010897 -0.000529 0.000155
v -0.010981 0.002587 -0.000362
v -0.010981 0.002587 0.000362
v -0.009782 0.005460 -0.000000
v -0.010778 0.002551 -0.000042
v -0.010859 0.002565 -0.000259
v -0.009944 0.005543 -0.000344
v -0.011129 0.002614 -0.000408
v -0.011435 0.002669 -0.000314
v -0.010269 0.005708 -0.000389
v -0.010496 0.005824 -0.000157
v -0.011565 0.002692 -0.000074
v -0.010479 0.005816 0.000189
v -0.011531 0.002685 0.000184
v -0.011229 0.002632 0.000422
v -0.010826 0.002559 0.000225
v -0.009944 0.005543 0.000344
v -0.010269 0.005708 0.000389
v -0.008008 0.007971 -0.000000
v -0.009802 0.005470 0.000109
v -0.009855 0.005497 -0.000252
v -0.010231 0.005689 -0.000410
v -0.008376 0.008325 -0.000422
v -0.010458 0.005805 -0.000218
v -0.008583 0.008525 -0.000111
v -0.010516 0.005835 0.000044
v -0.008570 0.008512 0.000151
v -0.010388 0.005769 0.000316
v -0.008450 0.008397 0.000353
v -0.010024 0.005583 0.000400
v -0.008066 0.008028 0.000255
v -0.008066 0.008028 -0.000255
v -0.008245 0.008200 0.000400
v -0.005586 0.009875 -0.000153
v -0.008012 0.007975 0.000077
v -0.008039 0.008001 -0.000194
v -0.005708 0.010094 -0.000407
v -0.008189 0.008146 -0.000377
v -0.008424 0.008371 -0.000378
v -0.008594 0.008536 -0.000077
v -0.005901 0.010438 -0.000308
v -0.005973 0.010567 -0.000000
v -0.008532 0.008475 0.000251
v -0.008365 0.008315 0.000396
v -0.005901 0.010438 0.000308
v -0.008129 0.008088 0.000344
v -0.005708 0.010094 0.000407
v -0.005579 0.009862 0.000120
v -0.002732 0.011107 -0.000344
v -0.005578 0.009862 -0.000120
v -0.005709 0.010094 -0.000407
v -0.002820 0.011506 -0.000378
v -0.005901 0.010438 -0.000308
v -0.005973 0.010567 -0.000000
v -0.002870 0.011737 -0.000077
v -0.002851 0.011652 0.000251
v -0.005901 0.010438 0.000308
v -0.005774 0.010212 0.000406
v -0.002775 0.011303 0.000425
v -0.005660 0.010007 0.000338
v -0.005586 0.009874 0.000153
v -0.002705 0.010984 0.000193
v -0.002697 0.010947 -0.000077
v -0.002714 0.011021 -0.000255
v 0.000374 0.011161 -0.000109
v -0.002696 0.010942 -0.000000
v 0.000386 0.011318 -0.000329
v -0.002805 0.011441 -0.000422
v 0.000432 0.011896 -0.000218
v -0.002867 0.011722 -0.000111
v 0.000437 0.011961 0.000044
v -0.002863 0.011704 0.000151
v -0.002805 0.011441 0.000422
v 0.000426 0.011817 0.000316
v -0.002714 0.011021 0.000255
v 0.000394 0.011410 0.000400
v 0.000375 0.011180 0.000149
v 0.000412 0.011641 -0.000410
v 0.000379 0.011227 -0.000246
v 0.003431 0.010614 -0.000097
v 0.000373 0.011151 -0.000000
v 0.000398 0.011466 -0.000397
v 0.003494 0.010774 -0.000271
v 0.000421 0.011750 -0.000361
v 0.000436 0.011946 -0.000119
v 0.003608 0.011065 -0.000116
v 0.000435 0.011930 0.000154
v 0.003601 0.011047 0.000141
v 0.000421 0.011750 0.000361
v 0.003494 0.010774 0.000271
v 0.000398 0.011466 0.000397
v 0.000379 0.011227 0.000246
v 0.003426 0.010602 0.000071
vt 1.000000 0.937500
vt 0.984540 1.000000
vt 0.953061 0.937500
vt 0.894917 1.000000
vt 0.863937 0.937500
vt 0.754109 1.000000
vt 0.750090 0.937500
vt 0.634528 0.937500
vt 0.593433 1.000000
vt 0.513052 0.937500
vt 0.417018 1.000000
vt 0.421487 0.937500
vt 0.347301 0.937500
vt 0.245888 1.000000
vt 0.249908 0.937500
vt 0.136061 0.937500
vt 0.105084 1.000000
vt 0.031071 0.937500
vt 0.393682 0.435100
vt 0.019085 0.256041
vt 0.137047 0.053518
vt 0.250123 0.486951
vt 0.106316 0.435100
vt 0.377428 0.058546
vt 0.480917 0.256036
vt 0.010288 1.000000
vt 0.688254 0.024361
vt 0.546525 0.133773
vt 0.688448 0.476133
vt 0.187094 0.500000
vt 0.047501 0.562500
vt 0.042354 0.500000
vt 0.303606 0.562500
vt 0.332569 0.500000
vt 0.426396 0.562500
vt 0.457440 0.500000
vt 0.559339 0.562500
vt 0.562431 0.500000
vt 0.667431 0.500000
vt 0.812906 0.500000
vt 0.696394 0.562500
vt 0.938776 0.562500
vt 0.937573 0.500000
vt 1.000000 0.500000
vt 0.953475 0.133773
vt 0.840574 0.031067
vt 0.962498 0.338672
vt 0.537502 0.338673
vt 0.840571 0.468943
vt 0.171610 0.562500
vt 0.828390 0.562500
vt 1.000000 0.562500
vt 0.018568 0.625000
vt 0.016483 0.562500
vt 0.108746 0.562500
vt 0.154149 0.625000
vt 0.233065 0.562500
vt 0.362244 0.562500
vt 0.301103 0.625000
vt 0.438577 0.625000
vt 0.470800 0.562500
vt 0.575798 0.625000
vt 0.574577 0.562500
vt 0.728940 0.562500
vt 0.909871 0.562500
vt 0.845851 0.625000
vt 0.969235 0.625000
vt 1.000000 0.562500
vt 0.698897 0.625000
vt 0.010582 0.687500
vt 0.000000 0.625000
vt 0.102306 0.625000
vt 0.282998 0.625000
vt 0.290062 0.687500
vt 0.409792 0.625000
vt 0.456429 0.687500
vt 0.517249 0.625000
vt 0.560839 0.687500
vt 0.639310 0.625000
vt 0.664938 0.687500
vt 0.805704 0.625000
vt 0.893737 0.687500
vt 0.957303 0.625000
vt 0.106265 0.687500
vt 0.779581 0.687500
vt 0.983892 0.687500
vt 0.061522 0.750000
vt 0.000000 0.687500
vt 0.078182 0.687500
vt 0.202055 0.750000
vt 0.188453 0.687500
vt 0.317978 0.687500
vt 0.469978 0.687500
vt 0.364156 0.750000
vt 0.499629 0.750000
vt 0.605464 0.687500
vt 0.713908 0.687500
vt 0.635844 0.750000
vt 0.845641 0.687500
vt 0.797945 0.750000
vt 0.969527 0.687500
vt 0.952542 0.750000
vt 0.000000 0.750000
vt 0.154363 0.812500
vt 0.047453 0.750000
vt 0.202039 0.750000
vt 0.317994 0.812500
vt 0.364140 0.750000
vt 0.499628 0.750000
vt 0.469979 0.812500
vt 0.605468 0.812500
vt 0.635860 0.750000
vt 0.746441 0.750000
vt 0.763273 0.812500
vt 0.843732 0.750000
vt 0.938484 0.750000
vt 0.921824 0.812500
vt 1.000000 0.812500
vt 1.000000 0.750000
vt 0.030479 0.812500
vt 0.106249 0.812500
vt 0.042688 0.875000
vt 0.016102 0.812500
vt 0.150677 0.875000
vt 0.290044 0.812500
vt 0.409796 0.875000
vt 0.456434 0.812500
vt 0.517231 0.875000
vt 0.560865 0.812500
vt 0.709957 0.812500
vt 0.639302 0.875000
vt 0.893751 0.812500
vt 0.805687 0.875000
vt 0.939728 0.875000
vt 0.989422 0.812500
vt 0.283011 0.875000
vt 1.000000 0.875000
vt 0.102168 0.875000
vt 0.061329 0.937500
vt 0.014441 0.875000
vt 0.215067 0.875000
vt 0.209381 0.937500
vt 0.329259 0.875000
vt 0.452974 0.875000
vt 0.429741 0.937500
vt 0.562056 0.875000
vt 0.589446 0.937500
vt 0.670741 0.875000
vt 0.790618 0.937500
vt 0.784933 0.875000
vt 0.897832 0.875000
vt 0.956483 0.937500
vt 0.990176 0.875000
vt 0.000000 0.937500
vn -0.4701 -0.8799 0.0696
vn -0.4706 -0.8796 0.0696
vn -0.3999 -0.7554 0.5191
vn -0.1463 -0.3132 0.9384
vn 0.2028 0.2936 0.9342
vn 0.4682 0.7652 0.4418
vn 0.4678 0.7657 0.4415
vn 0.5089 0.8304 -0.2270
vn 0.5084 0.8307 -0.2269
vn 0.4021 0.6447 -0.6501
vn 0.1845 0.2611 -0.9475
vn 0.1844 0.2608 -0.9476
vn -0.1463 -0.3132 -0.9384
vn -0.4084 -0.7689 -0.4919
vn 0.7852 -0.6193 -0.0000
vn 0.7848 -0.6197 0.0004
vn 0.7847 -0.6199 0.0005
vn -0.4444 -0.8438 0.3009
vn -0.4445 -0.8436 0.3013
vn -0.2048 -0.4273 0.8806
vn -0.2043 -0.4268 0.8810
vn -0.2051 -0.4275 0.8804
vn 0.2569 0.3779 0.8895
vn 0.5291 0.8475 0.0418
vn 0.5291 0.8475 0.0423
vn 0.5295 0.8473 0.0420
vn 0.2692 0.3957 -0.8780
vn 0.2694 0.3954 -0.8781
vn -0.2051 -0.4275 -0.8805
vn -0.2047 -0.4271 -0.8808
vn 0.7868 -0.6173 0.0001
vn 0.7863 -0.6178 0.0002
vn 0.7851 -0.6193 -0.0004
vn 0.7849 -0.6196 -0.0005
vn -0.4443 -0.8441 -0.3003
vn 0.1169 -0.9931 0.0000
vn 0.1169 -0.9931 -0.0002
vn 0.1169 -0.9931 -0.0001
vn 0.7657 -0.0246 -0.6428
vn -0.0817 -0.0055 -0.9966
vn -0.7931 0.0170 -0.6088
vn -0.9963 0.0270 0.0821
vn -0.7664 0.0221 0.6420
vn -0.7662 0.0217 0.6422
vn -0.0820 -0.0055 0.9966
vn -0.0819 -0.0057 0.9966
vn 0.7372 -0.0224 0.6753
vn 0.9962 -0.0309 0.0816
vn 0.1170 -0.9931 -0.0001
vn 0.1169 -0.9931 0.0001
vn 0.1170 -0.9931 -0.0004
vn 0.7770 -0.0269 -0.6289
vn 0.7773 -0.0273 -0.6285
vn 0.0791 0.0044 -0.9969
vn -0.6669 0.0271 -0.7447
vn -0.6668 0.0267 -0.7448
vn -0.9979 0.0375 -0.0535
vn -0.6944 0.0281 0.7190
vn -0.6942 0.0283 0.7192
vn 0.0791 0.0044 0.9969
vn 0.7563 -0.0259 0.6537
vn 0.9982 -0.0285 0.0524
vn 0.8874 -0.2985 -0.3512
vn 0.4517 -0.1639 -0.8770
vn 0.4516 -0.1636 -0.8771
vn -0.2784 0.0832 -0.9569
vn -0.8350 0.2723 -0.4781
vn -0.9399 0.3150 0.1319
vn -0.9397 0.3155 0.1321
vn -0.5849 0.1956 0.7871
vn -0.5849 0.1954 0.7873
vn 0.4116 -0.1578 0.8976
vn 0.9300 -0.3207 0.1797
vn 0.8447 -0.2728 -0.4606
vn 0.1229 -0.0283 -0.9920
vn -0.6372 0.2263 -0.7367
vn -0.9448 0.3232 0.0529
vn -0.9446 0.3238 0.0529
vn -0.6185 0.2013 0.7595
vn -0.6188 0.2011 0.7594
vn 0.1228 -0.0277 0.9920
vn 0.8461 -0.2688 0.4603
vn 0.7987 -0.5798 -0.1610
vn 0.2885 -0.2073 -0.9348
vn 0.2912 -0.2087 -0.9336
vn 0.2960 -0.2110 -0.9316
vn -0.4970 0.3461 -0.7957
vn -0.4973 0.3464 -0.7955
vn -0.7952 0.5575 -0.2385
vn -0.7247 0.5083 0.4652
vn -0.1697 0.1105 0.9793
vn -0.1693 0.1108 0.9793
vn 0.6139 -0.4535 0.6462
vn 0.7787 -0.5507 -0.3006
vn 0.2986 -0.2123 -0.9305
vn -0.5937 0.4357 -0.6765
vn -0.8079 0.5851 0.0709
vn -0.8082 0.5847 0.0708
vn -0.6285 0.4545 0.6312
vn -0.1343 0.0913 0.9867
vn -0.1348 0.0910 0.9867
vn -0.1343 0.0918 0.9867
vn 0.4202 -0.2857 0.8613
vn 0.7812 -0.5472 0.3004
vn 0.6024 -0.7863 -0.1373
vn 0.6027 -0.7861 -0.1371
vn 0.4043 -0.5263 -0.7480
vn -0.0042 -0.0102 -0.9999
vn -0.4893 0.6179 -0.6154
vn -0.5971 0.7607 0.2547
vn -0.5970 0.7609 0.2544
vn -0.3313 0.4194 0.8452
vn 0.0870 -0.1361 0.9869
vn 0.5184 -0.6802 0.5183
vn 0.5180 -0.6804 0.5184
vn 0.6124 -0.7888 -0.0528
vn 0.6126 -0.7886 -0.0531
vn 0.4408 -0.5620 -0.6999
vn 0.4407 -0.5623 -0.6997
vn -0.1375 0.2005 -0.9700
vn -0.5454 0.7200 -0.4290
vn -0.5462 0.7195 0.4290
vn -0.5463 0.7197 0.4285
vn -0.1383 0.2006 0.9699
vn -0.1380 0.2002 0.9700
vn -0.1378 0.2004 0.9700
vn 0.4594 -0.5760 0.6761
vn 0.4597 -0.5760 0.6759
vn 0.2502 -0.6932 -0.6759
vn 0.2504 -0.6933 -0.6757
vn -0.0988 0.2222 -0.9700
vn -0.3280 0.8416 -0.4290
vn -0.3271 0.8420 0.4290
vn -0.1267 0.3333 0.9343
vn -0.1270 0.3334 0.9342
vn 0.0916 -0.2679 0.9591
vn 0.2717 -0.7276 0.6299
vn 0.2716 -0.7279 0.6296
vn 0.3513 -0.9348 0.0531
vn 0.3082 -0.7977 -0.5183
vn 0.0465 -0.0746 -0.9961
vn -0.2704 0.7404 -0.6154
vn -0.3356 0.9069 0.2547
vn -0.1479 0.4137 0.8983
vn 0.2186 -0.5407 0.8123
vn 0.2187 -0.5410 0.8121
vn 0.3543 -0.9250 0.1372
vn 0.0573 -0.9521 -0.3004
vn 0.0130 -0.3681 -0.9297
vn -0.0606 0.7340 -0.6765
vn -0.0751 0.9946 0.0710
vn -0.0596 0.7098 0.7019
vn 0.0031 -0.3700 0.9290
vn 0.0591 -0.9520 0.3004
vn 0.0642 -0.8145 -0.5766
vn 0.0189 -0.2448 -0.9694
vn -0.0348 0.6046 -0.7957
vn -0.0588 0.9694 -0.2385
vn -0.0537 0.8836 0.4652
vn 0.0094 0.2013 0.9795
vn 0.0089 0.2011 0.9795
vn 0.0608 -0.7369 0.6732
vn 0.0605 -0.7369 0.6733
vn 0.0736 -0.9947 0.0721
vn 0.0739 -0.9947 0.0720
vn -0.1746 -0.9395 -0.2948
vn -0.0837 -0.5271 -0.8456
vn -0.0834 -0.5269 -0.8458
vn 0.0671 0.1190 -0.9906
vn 0.0668 0.1193 -0.9906
vn 0.2098 0.7544 -0.6220
vn 0.2669 0.9622 0.0551
vn 0.2067 0.7313 0.6500
vn 0.0667 0.1190 0.9906
vn -0.0837 -0.5271 0.8456
vn -0.0834 -0.5273 0.8456
vn -0.1757 -0.9393 0.2948
vn -0.1749 -0.9820 -0.0710
vn -0.1095 -0.7122 -0.6934
vn 0.1583 0.4158 -0.8956
vn 0.2682 0.9604 0.0757
vn 0.1468 0.3778 0.9142
vn -0.1128 -0.7367 0.6668
usemtl Material.015
s 1
f 1/1/1 2/2/2 3/3/1
f 3/3/3 4/4/3 5/5/3
f 6/6/4 7/7/4 5/5/4
f 7/7/5 6/6/5 8/8/5
f 8/8/6 9/9/7 10/10/6
f 10/10/8 11/11/9 12/12/8
f 12/12/10 11/11/10 13/13/10
f 14/14/11 15/15/11 13/13/12
f 15/15/13 14/14/13 16/16/13
f 17/17/14 1/18/14 16/16/14
f 4/19/15 14/20/16 11/21/17
f 3/3/18 2/2/19 4/4/18
f 5/5/20 4/4/21 6/6/22
f 8/8/23 6/6/23 9/9/23
f 9/9/24 11/11/25 10/10/26
f 11/11/27 14/14/27 13/13/28
f 14/14/29 17/17/30 16/16/30
f 2/22/31 17/23/32 4/19/15
f 4/19/15 17/23/32 14/20/16
f 11/21/17 9/24/33 6/25/34
f 6/25/34 4/19/15 11/21/17
f 17/17/35 2/26/35 1/18/35
usemtl Material.008
f 18/27/36 19/28/37 20/29/38
f 21/30/39 22/31/39 20/32/39
f 23/33/40 21/30/40 19/34/40
f 24/35/41 19/34/41 18/36/41
f 25/37/42 18/36/42 26/38/42
f 27/39/43 25/37/44 26/38/44
f 28/40/45 29/41/46 27/39/45
f 30/42/47 28/40/47 31/43/47
f 20/44/48 30/42/48 31/43/48
f 27/45/49 26/46/50 28/47/37
f 21/48/51 20/29/38 19/28/37
f 20/29/38 31/49/50 26/46/50
f 31/49/50 28/47/37 26/46/50
f 26/46/50 18/27/36 20/29/38
f 21/30/52 32/50/53 22/31/52
f 21/30/54 23/33/54 32/50/54
f 19/34/55 24/35/56 23/33/56
f 18/36/57 25/37/57 24/35/57
f 29/41/58 25/37/59 27/39/59
f 33/51/60 29/41/60 28/40/60
f 30/42/61 33/51/61 28/40/61
f 20/44/62 22/52/62 30/42/62
usemtl Material.009
f 34/53/63 35/54/63 36/55/63
f 37/56/64 36/55/65 38/57/64
f 39/58/66 40/59/66 38/57/66
f 41/60/67 39/58/67 42/61/67
f 43/62/68 42/61/69 44/63/69
f 45/64/70 43/62/71 44/63/71
f 46/65/72 47/66/72 45/64/72
f 34/67/73 46/65/73 35/68/73
f 36/55/74 37/56/74 34/53/74
f 38/57/75 40/59/75 37/56/75
f 41/60/76 40/59/76 39/58/76
f 43/62/77 41/60/78 42/61/78
f 45/64/79 48/69/80 43/62/79
f 47/66/81 48/69/81 45/64/81
f 34/67/82 47/66/82 46/65/82
usemtl Material.010
f 49/70/83 50/71/83 51/72/83
f 52/73/84 53/74/85 51/72/86
f 53/74/87 52/73/88 54/75/87
f 55/76/89 54/75/89 56/77/89
f 57/78/90 56/77/90 58/79/90
f 59/80/91 58/79/92 60/81/92
f 61/82/93 60/81/93 50/83/93
f 62/84/94 49/70/94 51/72/94
f 51/72/86 53/74/85 62/84/95
f 54/75/96 55/76/96 53/74/96
f 56/77/97 57/78/98 55/76/98
f 59/80/99 57/78/99 58/79/99
f 63/85/100 59/80/101 60/81/102
f 61/82/103 63/85/103 60/81/103
f 50/83/104 49/86/104 61/82/104
usemtl Material.011
f 64/87/105 65/88/106 66/89/106
f 67/90/107 66/89/107 68/91/107
f 67/90/108 68/91/108 69/92/108
f 70/93/109 71/94/109 69/92/109
f 72/95/110 70/93/110 73/96/111
f 74/97/112 75/98/112 73/96/112
f 76/99/113 77/100/113 74/97/113
f 65/101/114 78/102/115 76/99/114
f 64/87/116 78/103/117 65/88/117
f 66/89/118 67/90/119 64/87/118
f 69/92/120 71/94/120 67/90/120
f 72/95/121 71/94/121 70/93/121
f 73/96/122 75/98/123 72/95/122
f 77/100/124 75/98/125 74/97/126
f 78/102/127 77/100/128 76/99/128
usemtl Material.012
f 79/104/129 80/105/129 81/106/130
f 82/107/131 81/106/131 83/108/131
f 84/109/132 85/110/132 83/108/132
f 86/111/133 84/109/133 87/112/133
f 88/113/134 89/114/135 87/112/135
f 90/115/136 89/114/136 88/113/136
f 91/116/137 92/117/138 90/115/138
f 93/118/139 91/116/139 80/119/139
f 80/105/140 79/104/140 93/120/140
f 81/106/141 82/107/141 79/104/141
f 85/110/142 82/107/142 83/108/142
f 84/109/143 86/111/143 85/110/143
f 89/114/144 86/111/144 87/112/144
f 92/117/145 89/114/146 90/115/146
f 93/118/147 92/117/147 91/116/147
usemtl Material.013
f 94/121/148 95/122/148 96/123/148
f 97/124/149 94/121/149 98/125/149
f 99/126/150 98/125/150 100/127/150
f 101/128/151 100/127/151 102/129/151
f 103/130/152 104/131/152 102/129/152
f 105/132/153 106/133/153 103/130/153
f 107/134/154 105/132/154 96/135/154
f 97/124/155 95/122/155 94/121/155
f 108/136/156 97/124/156 98/125/156
f 98/125/157 99/126/157 108/136/157
f 100/127/158 101/128/158 99/126/158
f 102/129/159 104/131/159 101/128/159
f 103/130/160 106/133/161 104/131/161
f 105/132/162 107/134/162 106/133/163
f 95/137/164 107/134/164 96/135/165
usemtl Material.014
f 109/138/166 110/139/166 111/140/166
f 112/141/167 113/142/167 109/138/168
f 114/143/169 113/142/170 112/141/170
f 115/144/171 116/145/171 114/143/171
f 117/146/172 116/145/172 115/144/172
f 118/147/173 117/146/173 119/148/173
f 120/149/174 119/148/174 121/150/174
f 120/149/175 121/150/175 122/151/176
f 123/152/177 122/151/177 111/153/177
f 111/140/178 110/139/178 123/154/178
f 113/142/179 110/139/179 109/138/179
f 114/143/180 116/145/180 113/142/180
f 117/146/181 118/147/181 116/145/181
f 120/149/182 118/147/182 119/148/182
f 122/151/183 123/152/183 120/149/183
