# Blender v3.6.2 OBJ File: 'full_scene_new_instruments.blend'
# www.blender.org
mtllib phantom_collision_mesh.mtl
o phantom_collision_mesh_Plane.017
v -0.041828 -0.007151 0.005214
v -0.039319 -0.002530 0.005214
v -0.050262 -0.002572 0.005214
v -0.047753 0.002049 0.005214
v -0.041357 -0.008086 0.002264
v -0.038278 -0.002416 0.002264
v -0.050976 -0.002863 0.002264
v -0.047898 0.002807 0.002264
v -0.065985 -0.070227 -0.003727
v -0.065932 0.070133 -0.003727
v -0.065985 -0.070227 0.002119
v -0.065932 0.070133 0.002119
v 0.073393 -0.068187 -0.003727
v 0.073447 0.072173 -0.003727
v 0.073393 -0.068187 0.002118
v 0.073447 0.072173 0.002118
v -0.009003 0.022765 0.005214
v -0.003250 0.024153 0.005214
v -0.011536 0.033266 0.005214
v -0.005783 0.034653 0.005214
v -0.009429 0.021666 0.001894
v -0.002370 0.023369 0.001894
v -0.012318 0.033643 0.001894
v -0.005259 0.035345 0.001894
v -0.021369 0.019950 0.007414
v -0.015181 0.021394 0.007414
v -0.023817 0.030440 0.007414
v -0.017630 0.031884 0.007414
v -0.021984 0.018674 0.002264
v -0.014125 0.020676 0.002264
v -0.025038 0.030664 0.002264
v -0.017179 0.032666 0.002264
v -0.029962 0.011675 0.002264
v -0.023868 0.016270 0.002264
v -0.037181 0.021247 0.002264
v -0.031087 0.025843 0.002264
v -0.030060 0.012911 0.007414
v -0.025029 0.016705 0.007414
v -0.036019 0.020813 0.007414
v -0.030989 0.024607 0.007414
v -0.036311 0.002365 0.002264
v -0.031305 0.008575 0.002264
v -0.045968 0.010150 0.002264
v -0.040962 0.016360 0.002264
v -0.036809 0.003447 0.006908
v -0.032395 0.008924 0.006908
v -0.044703 0.009811 0.006908
v -0.040289 0.015287 0.006908
v -0.062433 0.018493 0.002021
v -0.052490 0.008326 0.001252
v -0.034797 0.045522 0.003072
v -0.024854 0.035356 0.002723
v -0.048615 0.032007 0.002210
v -0.057462 0.013410 0.001284
v -0.038672 0.021841 0.002565
v -0.029826 0.040439 0.003074
v -0.043644 0.026924 0.005811
v -0.055524 0.025250 0.001663
v -0.054976 0.010868 0.003795
v -0.031763 0.028598 0.002520
v -0.032312 0.042980 0.003130
v -0.041706 0.038765 0.002701
v -0.059948 0.015951 0.001610
v -0.045581 0.015084 0.001934
v -0.027340 0.037897 0.003363
v -0.036735 0.033681 0.006671
v -0.050553 0.020167 0.004969
v -0.046130 0.029466 0.006498
v -0.041158 0.024383 0.005349
v -0.048067 0.017625 0.005350
v -0.053039 0.022708 0.005772
v -0.039221 0.036223 0.006446
v -0.034249 0.031140 0.006429
v 0.002477 -0.041009 0.003216
v 0.057760 -0.038022 0.002988
v -0.002283 0.047090 0.002372
v 0.057342 0.047925 0.002042
v -0.011388 0.002157 0.001342
v 0.030119 -0.039516 0.003895
v 0.059041 0.003342 0.003989
v 0.024691 0.056202 0.004434
v 0.028467 0.004098 0.015613
v -0.005947 -0.019868 0.003342
v 0.043939 -0.038769 0.003244
v 0.062193 0.023214 0.002107
v 0.011537 0.047837 0.002436
v -0.005344 0.025065 0.002452
v 0.016298 -0.040263 0.004434
v 0.056570 -0.015997 0.002629
v 0.042853 0.054796 0.004022
v 0.025881 0.034177 0.015538
v 0.029657 -0.017927 0.008468
v 0.003161 0.002467 0.019207
v 0.045220 0.002595 0.004777
v 0.042749 -0.016744 0.008927
v 0.008602 -0.019557 0.011318
v 0.008477 0.025812 0.007977
v 0.047704 0.030086 0.011064
v -0.056457 -0.041882 0.003840
v -0.022844 -0.068281 0.002893
v -0.041372 -0.010284 0.002085
v 0.005850 -0.040672 0.004189
v -0.058142 -0.019888 0.001534
v -0.046271 -0.063436 0.002861
v -0.002932 -0.059033 0.003451
v -0.017941 -0.023393 0.002518
v -0.030321 -0.040438 0.010042
v -0.056076 -0.034751 0.002347
v -0.031520 -0.068122 0.004123
v 0.003258 -0.050510 0.003897
v -0.029837 -0.014753 0.002461
v -0.051953 -0.011365 0.002036
v -0.055527 -0.050147 0.002410
v -0.012719 -0.066240 0.002638
v -0.006045 -0.032032 0.002740
v -0.024131 -0.031916 0.013134
v -0.038156 -0.052263 0.009448
v -0.046247 -0.028528 0.013816
v -0.014827 -0.050394 0.011187
v -0.025330 -0.059599 0.005417
v -0.049337 -0.041625 0.007583
v -0.040057 -0.020005 0.010837
v -0.008637 -0.041871 0.011718
v -0.028437 -0.024854 0.002001
v 0.001643 -0.024214 0.001544
v -0.027686 0.007140 0.002145
v -0.003256 0.007815 0.002102
v -0.030961 -0.008929 0.002001
v -0.015348 -0.025015 0.002001
v 0.000371 -0.008122 0.001777
v -0.015894 0.007760 0.002316
v -0.015847 -0.008520 0.007250
v -0.030712 -0.016892 0.002001
v -0.004901 -0.024989 0.001544
v 0.000122 -0.000159 0.001777
v -0.022829 0.008472 0.002145
v -0.031149 0.000305 0.002045
v -0.021893 -0.025220 0.002001
v 0.001394 -0.016251 0.001544
v -0.009350 0.007965 0.002316
v -0.015645 -0.000202 0.007464
v -0.015597 -0.017053 0.007250
v -0.024416 -0.008725 0.007250
v -0.006173 -0.008326 0.007025
v -0.005151 -0.017027 0.006793
v -0.024167 -0.017258 0.007250
v -0.024605 0.000510 0.007293
v -0.005971 -0.000009 0.007239
vt 0.000000 0.000000
vt 1.000000 0.000000
vt 1.000000 1.000000
vt 0.000000 1.000000
vt 0.000000 0.000000
vt 1.000000 0.000000
vt 1.000000 1.000000
vt 0.000000 1.000000
vt 0.000000 0.000000
vt 0.000000 0.000000
vt 0.000000 0.000000
vt 0.000000 0.000000
vt 0.000000 0.000000
vt 0.375000 0.000000
vt 0.625000 0.000000
vt 0.625000 0.250000
vt 0.375000 0.250000
vt 0.625000 0.500000
vt 0.375000 0.500000
vt 0.625000 0.750000
vt 0.375000 0.750000
vt 0.625000 1.000000
vt 0.375000 1.000000
vt 0.125000 0.500000
vt 0.125000 0.750000
vt 0.875000 0.500000
vt 0.875000 0.750000
vt 0.000000 0.000000
vt 1.000000 0.000000
vt 1.000000 1.000000
vt 0.000000 1.000000
vt 0.000000 0.000000
vt 1.000000 0.000000
vt 1.000000 1.000000
vt 0.000000 1.000000
vt 0.000000 0.000000
vt 0.000000 0.000000
vt 0.000000 0.000000
vt 0.000000 0.000000
vt 0.000000 0.000000
vt 0.000000 0.000000
vt 1.000000 0.000000
vt 1.000000 1.000000
vt 0.000000 1.000000
vt 0.000000 0.000000
vt 1.000000 0.000000
vt 1.000000 1.000000
vt 0.000000 1.000000
vt 0.000000 0.000000
vt 0.000000 0.000000
vt 0.000000 0.000000
vt 0.000000 0.000000
vt 0.000000 0.000000
vt 0.000000 0.000000
vt 1.000000 0.000000
vt 1.000000 1.000000
vt 0.000000 1.000000
vt 0.000000 0.000000
vt 1.000000 0.000000
vt 1.000000 1.000000
vt 0.000000 1.000000
vt 0.000000 0.000000
vt 0.000000 0.000000
vt 0.000000 0.000000
vt 0.000000 0.000000
vt 0.000000 0.000000
vt 0.000000 0.000000
vt 1.000000 0.000000
vt 1.000000 1.000000
vt 0.000000 1.000000
vt 0.000000 0.000000
vt 1.000000 0.000000
vt 1.000000 1.000000
vt 0.000000 1.000000
vt 0.000000 0.000000
vt 0.000000 0.000000
vt 0.000000 0.000000
vt 0.000000 0.000000
vt 0.000000 0.000000
vt 0.750000 0.750000
vt 1.000000 0.750000
vt 1.000000 1.000000
vt 0.750000 1.000000
vt 0.250000 0.750000
vt 0.500000 0.750000
vt 0.500000 1.000000
vt 0.250000 1.000000
vt 0.250000 0.250000
vt 0.500000 0.250000
vt 0.500000 0.500000
vt 0.250000 0.500000
vt 0.750000 0.250000
vt 1.000000 0.250000
vt 1.000000 0.500000
vt 0.750000 0.500000
vt 0.500000 0.000000
vt 0.750000 0.000000
vt 1.000000 0.000000
vt 0.000000 0.250000
vt 0.000000 0.500000
vt 0.000000 0.000000
vt 0.250000 0.000000
vt 0.000000 0.750000
vt 0.000000 1.000000
vt 0.750000 0.750000
vt 1.000000 0.750000
vt 1.000000 1.000000
vt 0.750000 1.000000
vt 0.250000 0.750000
vt 0.500000 0.750000
vt 0.500000 1.000000
vt 0.250000 1.000000
vt 0.250000 0.250000
vt 0.500000 0.250000
vt 0.500000 0.500000
vt 0.250000 0.500000
vt 0.750000 0.250000
vt 1.000000 0.250000
vt 1.000000 0.500000
vt 0.750000 0.500000
vt 0.500000 0.000000
vt 0.750000 0.000000
vt 1.000000 0.000000
vt 0.000000 0.250000
vt 0.000000 0.500000
vt 0.000000 0.000000
vt 0.250000 0.000000
vt 0.000000 0.750000
vt 0.000000 1.000000
vt 0.750000 0.750000
vt 1.000000 0.750000
vt 1.000000 1.000000
vt 0.750000 1.000000
vt 0.250000 0.750000
vt 0.500000 0.750000
vt 0.500000 1.000000
vt 0.250000 1.000000
vt 0.250000 0.250000
vt 0.500000 0.250000
vt 0.500000 0.500000
vt 0.250000 0.500000
vt 0.750000 0.250000
vt 1.000000 0.250000
vt 1.000000 0.500000
vt 0.750000 0.500000
vt 0.500000 0.000000
vt 0.750000 0.000000
vt 1.000000 0.000000
vt 0.000000 0.250000
vt 0.000000 0.500000
vt 0.000000 0.000000
vt 0.250000 0.000000
vt 0.000000 0.750000
vt 0.000000 1.000000
vt 0.750000 0.750000
vt 1.000000 0.750000
vt 1.000000 1.000000
vt 0.750000 1.000000
vt 0.250000 0.750000
vt 0.500000 0.750000
vt 0.500000 1.000000
vt 0.250000 1.000000
vt 0.250000 0.250000
vt 0.500000 0.250000
vt 0.500000 0.500000
vt 0.250000 0.500000
vt 0.750000 0.250000
vt 1.000000 0.250000
vt 1.000000 0.500000
vt 0.750000 0.500000
vt 0.500000 0.000000
vt 0.750000 0.000000
vt 1.000000 0.000000
vt 0.000000 0.250000
vt 0.000000 0.500000
vt 0.000000 0.000000
vt 0.250000 0.000000
vt 0.000000 0.750000
vt 0.000000 1.000000
vn 0.0000 0.0000 1.0000
vn -0.4677 -0.8613 0.1983
vn -0.4677 -0.8613 -0.1983
vn 0.8670 -0.4708 -0.1635
vn -0.8670 0.4708 0.1635
vn 0.8436 -0.4581 0.2801
vn 1.0000 -0.0004 0.0000
vn -0.0000 0.0000 -1.0000
vn -1.0000 0.0004 0.0000
vn -0.0146 0.9999 0.0000
vn 0.0146 -0.9999 0.0000
vn -0.9528 -0.2298 0.1983
vn -0.9528 -0.2298 -0.1983
vn 0.2313 -0.9590 -0.1635
vn -0.2313 0.9590 0.1635
vn 0.2251 -0.9332 0.2801
vn -0.9529 -0.2333 0.1937
vn -0.2416 0.9483 -0.2060
vn -0.9562 -0.2436 -0.1623
vn -0.9669 -0.2257 -0.1189
vn 0.2456 -0.9642 -0.1002
vn 0.2236 -0.9580 0.1794
vn -0.2254 0.9660 0.1269
vn 0.7918 0.5972 -0.1282
vn -0.5901 0.7824 -0.1991
vn -0.7918 -0.5972 -0.1282
vn 0.5901 -0.7824 -0.1991
vn 0.5901 -0.7824 0.1991
vn -0.5901 0.7824 0.1991
vn 0.6235 0.7735 -0.1133
vn 0.7539 -0.6077 -0.2498
vn -0.7588 0.6116 -0.2240
vn -0.6251 -0.7755 -0.0886
vn 0.7588 -0.6116 0.2240
vn -0.7539 0.6077 0.2498
vn 0.4624 -0.2957 0.8359
vn 0.2250 0.2515 0.9414
vn 0.0864 -0.2015 0.9757
vn 0.4419 -0.4869 0.7534
vn -0.0231 -0.0385 0.9990
vn -0.4296 0.0909 0.8984
vn 0.3843 -0.5192 0.7634
vn -0.5635 0.5153 0.6456
vn -0.4408 0.2047 0.8739
vn -0.1643 -0.3643 0.9167
vn -0.2316 0.4273 0.8739
vn -0.5342 0.5247 0.6627
vn 0.0155 -0.0754 0.9970
vn 0.2287 0.2323 0.9454
vn -0.0025 -0.1396 0.9902
vn 0.4510 -0.5169 0.7276
vn 0.4311 0.2108 0.8773
vn -0.4429 0.3333 0.8323
vn 0.1520 -0.2987 0.9422
vn 0.2462 0.0384 0.9685
vn 0.3266 -0.0783 0.9419
vn 0.0233 -0.2280 0.9734
vn 0.2348 -0.1041 0.9665
vn -0.6390 -0.2549 0.7257
vn -0.2883 -0.2652 0.9201
vn 0.1101 -0.2401 0.9645
vn -0.2038 0.1517 0.9672
vn -0.6117 0.3095 0.7280
vn -0.1394 0.2118 0.9673
vn 0.1631 0.3754 0.9124
vn 0.3545 -0.0997 0.9297
vn 0.2990 -0.1236 0.9462
vn 0.4265 0.2688 0.8636
vn 0.3636 0.5761 0.7320
vn -0.1119 -0.2166 0.9698
vn 0.0891 -0.4637 0.8815
vn -0.0523 -0.2472 0.9676
vn -0.0528 -0.3376 0.9398
vn 0.1011 -0.2508 0.9627
vn -0.7262 -0.1051 0.6794
vn -0.4650 -0.0130 0.8852
vn -0.3896 -0.2468 0.8873
vn 0.0890 0.6731 0.7342
vn -0.4134 0.4179 0.8090
vn 0.0268 -0.0261 0.9993
vn 0.4142 0.5642 0.7143
vn -0.0859 -0.1471 0.9854
vn 0.3540 -0.3077 0.8832
vn 0.3943 0.4049 0.8250
vn 0.0303 0.5406 0.8407
vn 0.6223 0.0540 0.7809
vn 0.0340 -0.0110 0.9994
vn 0.0379 -0.5491 0.8349
vn 0.3857 -0.2779 0.8798
vn -0.6257 -0.0189 0.7799
vn -0.3621 -0.3835 0.8496
vn 0.0149 -0.5487 0.8359
vn -0.4253 0.4234 0.7999
vn -0.6252 -0.0164 0.7803
vn -0.0102 -0.0147 0.9998
vn -0.0014 0.5340 0.8455
vn 0.0237 -0.0263 0.9994
vn 0.6466 -0.0081 0.7628
usemtl pc.007
s off
f 1/1/1 2/2/1 4/3/1 3/4/1
f 5/5/1 6/6/1 8/7/1 7/8/1
f 1/1/2 3/9/2 7/8/2 5/5/2
f 8/7/3 6/10/3 2/2/3
f 8/11/3 2/12/3 4/13/3
f 7/8/4 8/11/4 3/9/4
f 3/9/5 4/13/5 8/11/5
f 2/2/6 1/1/6 5/5/6 6/10/6
usemtl pc.001
f 9/14/7 10/15/7 12/16/7 11/17/7
f 11/17/8 12/16/8 16/18/8 15/19/8
f 15/19/9 16/18/9 14/20/9 13/21/9
f 13/21/1 14/20/1 10/22/1 9/23/1
f 11/24/10 15/19/10 13/21/10 9/25/10
f 16/18/11 12/26/11 10/27/11 14/20/11
usemtl pc.002
f 17/28/1 18/29/1 20/30/1 19/31/1
f 21/32/1 22/33/1 24/34/1 23/35/1
f 17/28/12 19/36/12 23/35/12 21/32/12
f 24/34/13 22/37/13 18/29/13
f 24/38/13 18/39/13 20/40/13
f 23/35/14 24/38/14 19/36/14
f 19/36/15 20/40/15 24/38/15
f 18/29/16 17/28/16 21/32/16 22/37/16
usemtl pc.003
f 25/41/1 26/42/1 28/43/1 27/44/1
f 29/45/1 30/46/1 32/47/1 31/48/1
f 25/41/17 27/49/17 31/48/17 29/45/17
f 30/50/18 29/45/18 25/41/18
f 32/47/19 30/50/19 26/42/19
f 32/51/20 26/52/20 28/53/20
f 31/48/21 32/51/21 27/49/21
f 26/42/22 25/41/22 30/50/22
f 27/49/23 28/53/23 32/51/23
usemtl pc.004
f 33/54/1 34/55/1 36/56/1 35/57/1
f 37/58/1 38/59/1 40/60/1 39/61/1
f 33/54/24 35/57/24 39/61/24 37/58/24
f 34/62/25 33/54/25 37/58/25
f 36/56/26 34/62/26 38/59/26
f 36/63/26 38/64/26 40/65/26
f 35/57/27 36/63/27 39/66/27
f 38/59/28 37/58/28 34/62/28
f 39/66/29 40/65/29 36/63/29
usemtl pc.006
f 41/67/1 42/68/1 44/69/1 43/70/1
f 45/71/1 46/72/1 48/73/1 47/74/1
f 41/67/30 43/70/30 47/74/30 45/71/30
f 44/75/31 47/76/31 43/70/31
f 41/67/32 45/71/32 42/77/32
f 42/77/33 46/72/33 44/69/33
f 44/75/33 46/78/33 48/79/33
f 45/71/34 42/77/34 46/72/34
f 48/79/35 44/75/35 47/76/35
usemtl Material.002
f 73/80/36 60/81/36 52/82/36 65/83/36
f 72/84/37 66/85/37 56/86/37 61/87/37
f 71/88/38 67/89/38 57/90/38 68/91/38
f 70/92/39 64/93/39 55/94/39 69/95/39
f 67/89/40 70/92/40 69/95/40 57/90/40
f 54/96/41 59/97/41 70/92/41 67/89/41
f 59/97/42 50/98/42 64/93/42 70/92/42
f 58/99/43 71/88/43 68/91/43 53/100/43
f 49/101/44 63/102/44 71/88/44 58/99/44
f 63/102/45 54/96/45 67/89/45 71/88/45
f 62/103/46 72/84/46 61/87/46 51/104/46
f 53/100/47 68/91/47 72/84/47 62/103/47
f 68/91/48 57/90/48 66/85/48 72/84/48
f 66/85/49 73/80/49 65/83/49 56/86/49
f 57/90/50 69/95/50 73/80/50 66/85/50
f 69/95/51 55/94/51 60/81/51 73/80/51
usemtl Material.001
f 98/105/52 85/106/52 77/107/52 90/108/52
f 97/109/53 91/110/53 81/111/53 86/112/53
f 96/113/54 92/114/54 82/115/54 93/116/54
f 95/117/55 89/118/55 80/119/55 94/120/55
f 92/114/56 95/117/56 94/120/56 82/115/56
f 79/121/57 84/122/57 95/117/57 92/114/57
f 84/122/58 75/123/58 89/118/58 95/117/58
f 83/124/59 96/113/59 93/116/59 78/125/59
f 74/126/60 88/127/60 96/113/60 83/124/60
f 88/127/61 79/121/61 92/114/61 96/113/61
f 87/128/62 97/109/62 86/112/62 76/129/62
f 78/125/63 93/116/63 97/109/63 87/128/63
f 93/116/64 82/115/64 91/110/64 97/109/64
f 91/110/65 98/105/65 90/108/65 81/111/65
f 82/115/66 94/120/66 98/105/66 91/110/66
f 94/120/67 80/119/67 85/106/67 98/105/67
usemtl Material
f 123/130/68 110/131/68 102/132/68 115/133/68
f 122/134/69 116/135/69 106/136/69 111/137/69
f 121/138/70 117/139/70 107/140/70 118/141/70
f 120/142/71 114/143/71 105/144/71 119/145/71
f 117/139/72 120/142/72 119/145/72 107/140/72
f 104/146/73 109/147/73 120/142/73 117/139/73
f 109/147/74 100/148/74 114/143/74 120/142/74
f 108/149/75 121/138/75 118/141/75 103/150/75
f 99/151/76 113/152/76 121/138/76 108/149/76
f 113/152/77 104/146/77 117/139/77 121/138/77
f 112/153/78 122/134/78 111/137/78 101/154/78
f 103/150/79 118/141/79 122/134/79 112/153/79
f 118/141/80 107/140/80 116/135/80 122/134/80
f 116/135/81 123/130/81 115/133/81 106/136/81
f 107/140/82 119/145/82 123/130/82 116/135/82
f 119/145/83 105/144/83 110/131/83 123/130/83
usemtl Material.003
f 148/155/84 135/156/84 127/157/84 140/158/84
f 147/159/85 141/160/85 131/161/85 136/162/85
f 146/163/1 142/164/1 132/165/1 143/166/1
f 145/167/86 139/168/86 130/169/86 144/170/86
f 142/164/87 145/167/87 144/170/87 132/165/87
f 129/171/88 134/172/88 145/167/88 142/164/88
f 134/172/89 125/173/89 139/168/89 145/167/89
f 133/174/90 146/163/90 143/166/90 128/175/90
f 124/176/91 138/177/91 146/163/91 133/174/91
f 138/177/92 129/171/92 142/164/92 146/163/92
f 137/178/93 147/159/93 136/162/93 126/179/93
f 128/175/94 143/166/94 147/159/94 137/178/94
f 143/166/95 132/165/95 141/160/95 147/159/95
f 141/160/96 148/155/96 140/158/96 131/161/96
f 132/165/97 144/170/97 148/155/97 141/160/97
f 144/170/98 130/169/98 135/156/98 148/155/98
